G75*
%MOIN*%
%OFA0B0*%
%FSLAX24Y24*%
%IPPOS*%
%LPD*%
%AMOC8*
5,1,8,0,0,1.08239X$1,22.5*
%
%ADD10OC8,0.0680*%
%ADD11C,0.0650*%
%ADD12C,0.0720*%
%ADD13C,0.0640*%
%ADD14OC8,0.0640*%
%ADD15R,0.0740X0.0740*%
%ADD16OC8,0.0740*%
%ADD17C,0.0160*%
%ADD18C,0.0120*%
%ADD19C,0.0100*%
D10*
X008600Y002415D03*
X008600Y003415D03*
X008600Y004415D03*
X008600Y005415D03*
X011600Y005415D03*
X011600Y004415D03*
X011600Y003415D03*
X011600Y002415D03*
D11*
X010600Y001415D03*
X009600Y001415D03*
D12*
X001460Y002915D02*
X000740Y002915D01*
X000740Y003915D02*
X001460Y003915D01*
X001460Y004915D02*
X000740Y004915D01*
X000740Y005915D02*
X001460Y005915D01*
D13*
X002780Y005415D02*
X003420Y005415D01*
X006780Y005415D02*
X007420Y005415D01*
X007420Y002415D02*
X006780Y002415D01*
X003420Y002415D02*
X002780Y002415D01*
D14*
X003100Y003415D03*
X003100Y004415D03*
X003100Y006415D03*
X007100Y006415D03*
X007100Y004415D03*
X007100Y003415D03*
D15*
X014100Y003415D03*
D16*
X013100Y003415D03*
X013100Y004415D03*
X014100Y004415D03*
X014100Y005415D03*
X013100Y005415D03*
D17*
X013600Y004915D02*
X014100Y004415D01*
X013100Y004415D02*
X012700Y004415D01*
X012200Y003915D01*
X011700Y003415D02*
X012600Y002515D01*
X013700Y002515D01*
X014100Y002915D01*
X014100Y003415D01*
X012100Y004915D02*
X011600Y004415D01*
X011100Y003915D02*
X010800Y003415D01*
X010800Y002915D01*
X011100Y002415D01*
X011600Y002415D01*
X011600Y003415D02*
X011700Y003415D01*
X009600Y001415D02*
X008600Y002415D01*
X007100Y002415D01*
X007100Y003415D02*
X008600Y003415D01*
X008600Y004415D02*
X007100Y004415D01*
X008600Y005415D02*
X008600Y006415D01*
X013100Y006415D01*
X014100Y005415D01*
X003100Y005415D02*
X003100Y006415D01*
X003100Y005415D02*
X002600Y004915D01*
X003100Y004415D01*
X002600Y003915D02*
X003100Y003415D01*
X003100Y002415D01*
X002600Y003915D02*
X001100Y003915D01*
X001100Y004915D02*
X002600Y004915D01*
D18*
X000600Y002393D02*
X000600Y000875D01*
X010480Y000875D01*
X010291Y000953D01*
X010138Y001107D01*
X010078Y001252D01*
X010068Y001222D01*
X010032Y001151D01*
X009985Y001086D01*
X009929Y001030D01*
X009865Y000983D01*
X009794Y000947D01*
X009718Y000923D01*
X009640Y000910D01*
X009609Y000910D01*
X009609Y001406D01*
X009591Y001406D01*
X009591Y000910D01*
X009560Y000910D01*
X009482Y000923D01*
X009406Y000947D01*
X009335Y000983D01*
X009271Y001030D01*
X009215Y001086D01*
X009168Y001151D01*
X009132Y001222D01*
X009107Y001297D01*
X009095Y001376D01*
X009095Y001406D01*
X009591Y001406D01*
X009591Y001424D01*
X009095Y001424D01*
X009095Y001455D01*
X009107Y001534D01*
X009132Y001609D01*
X009168Y001680D01*
X009215Y001744D01*
X009271Y001801D01*
X009335Y001847D01*
X009406Y001883D01*
X009482Y001908D01*
X009560Y001920D01*
X009591Y001920D01*
X009591Y001424D01*
X009609Y001424D01*
X009609Y001920D01*
X009640Y001920D01*
X009718Y001908D01*
X009794Y001883D01*
X009865Y001847D01*
X009929Y001801D01*
X009985Y001744D01*
X010032Y001680D01*
X010068Y001609D01*
X010078Y001579D01*
X010138Y001724D01*
X010291Y001877D01*
X010492Y001960D01*
X010708Y001960D01*
X010909Y001877D01*
X011062Y001724D01*
X011145Y001524D01*
X011145Y001307D01*
X011062Y001107D01*
X010909Y000953D01*
X010720Y000875D01*
X014410Y000875D01*
X014410Y002825D01*
X014387Y002825D01*
X014354Y002745D01*
X014270Y002661D01*
X014270Y002661D01*
X013870Y002261D01*
X013760Y002215D01*
X012540Y002215D01*
X012430Y002261D01*
X012346Y002345D01*
X012346Y002345D01*
X012160Y002531D01*
X012160Y002183D01*
X011832Y001855D01*
X011368Y001855D01*
X011110Y002114D01*
X011085Y002110D01*
X011063Y002115D01*
X011040Y002115D01*
X011006Y002130D01*
X010969Y002139D01*
X010951Y002152D01*
X010930Y002161D01*
X010904Y002188D01*
X010873Y002210D01*
X010862Y002229D01*
X010846Y002245D01*
X010831Y002280D01*
X010562Y002729D01*
X010546Y002745D01*
X010531Y002780D01*
X010512Y002812D01*
X010509Y002835D01*
X010500Y002856D01*
X010500Y002893D01*
X010494Y002930D01*
X010500Y002952D01*
X010500Y003378D01*
X010494Y003400D01*
X010500Y003438D01*
X010500Y003475D01*
X010509Y003496D01*
X010512Y003519D01*
X010531Y003551D01*
X010546Y003585D01*
X010562Y003601D01*
X010873Y004121D01*
X010969Y004192D01*
X011040Y004210D01*
X011040Y004647D01*
X011308Y004915D01*
X011040Y005183D01*
X011040Y005647D01*
X011368Y005975D01*
X011832Y005975D01*
X012160Y005647D01*
X012160Y005215D01*
X012208Y005195D01*
X012550Y005195D01*
X012550Y005375D01*
X013060Y005375D01*
X013060Y005455D01*
X012550Y005455D01*
X012550Y005643D01*
X012872Y005965D01*
X013060Y005965D01*
X013060Y005455D01*
X013140Y005455D01*
X013140Y005951D01*
X012976Y006115D01*
X008900Y006115D01*
X008900Y005907D01*
X009160Y005647D01*
X009160Y005183D01*
X008892Y004915D01*
X009160Y004647D01*
X009160Y004183D01*
X008892Y003915D01*
X009160Y003647D01*
X009160Y003183D01*
X008864Y002887D01*
X009120Y002631D01*
X009120Y002435D01*
X008620Y002435D01*
X008620Y002395D01*
X008620Y001895D01*
X008815Y001895D01*
X009120Y002200D01*
X009120Y002395D01*
X008620Y002395D01*
X008580Y002395D01*
X008580Y001895D01*
X008385Y001895D01*
X008080Y002200D01*
X008080Y002395D01*
X008580Y002395D01*
X008580Y002435D01*
X008080Y002435D01*
X008080Y002631D01*
X008336Y002887D01*
X008108Y003115D01*
X007564Y003115D01*
X007364Y002915D01*
X007459Y002915D01*
X007537Y002903D01*
X007612Y002879D01*
X007682Y002843D01*
X007746Y002797D01*
X007801Y002741D01*
X007848Y002677D01*
X007883Y002607D01*
X007908Y002532D01*
X007920Y002455D01*
X007920Y002435D01*
X007120Y002435D01*
X007120Y002395D01*
X007120Y001915D01*
X007459Y001915D01*
X007537Y001928D01*
X007612Y001952D01*
X007682Y001988D01*
X007746Y002034D01*
X007801Y002090D01*
X007848Y002153D01*
X007883Y002223D01*
X007908Y002298D01*
X007920Y002376D01*
X007920Y002395D01*
X007120Y002395D01*
X007080Y002395D01*
X007080Y001915D01*
X006741Y001915D01*
X006663Y001928D01*
X006588Y001952D01*
X006518Y001988D01*
X006454Y002034D01*
X006399Y002090D01*
X006352Y002153D01*
X006317Y002223D01*
X006292Y002298D01*
X006280Y002376D01*
X006280Y002395D01*
X007080Y002395D01*
X007080Y002435D01*
X006280Y002435D01*
X006280Y002455D01*
X006292Y002532D01*
X006317Y002607D01*
X006352Y002677D01*
X006399Y002741D01*
X006454Y002797D01*
X006518Y002843D01*
X006588Y002879D01*
X006663Y002903D01*
X006741Y002915D01*
X006836Y002915D01*
X006560Y003192D01*
X006560Y003639D01*
X006836Y003915D01*
X006560Y004192D01*
X006560Y004639D01*
X006836Y004915D01*
X006741Y004915D01*
X006663Y004928D01*
X006588Y004952D01*
X006518Y004988D01*
X006454Y005034D01*
X006399Y005090D01*
X006352Y005153D01*
X006317Y005223D01*
X006292Y005298D01*
X006280Y005376D01*
X006280Y005395D01*
X007080Y005395D01*
X007080Y005435D01*
X006280Y005435D01*
X006280Y005455D01*
X006292Y005532D01*
X006317Y005607D01*
X006352Y005677D01*
X006399Y005741D01*
X006454Y005797D01*
X006518Y005843D01*
X006588Y005879D01*
X006663Y005903D01*
X006741Y005915D01*
X006836Y005915D01*
X006560Y006192D01*
X006560Y006639D01*
X006876Y006955D01*
X007324Y006955D01*
X007640Y006639D01*
X007640Y006192D01*
X007364Y005915D01*
X007459Y005915D01*
X007537Y005903D01*
X007612Y005879D01*
X007682Y005843D01*
X007746Y005797D01*
X007801Y005741D01*
X007848Y005677D01*
X007883Y005607D01*
X007908Y005532D01*
X007920Y005455D01*
X007920Y005435D01*
X007120Y005435D01*
X007120Y005395D01*
X007920Y005395D01*
X007920Y005376D01*
X007908Y005298D01*
X007883Y005223D01*
X007848Y005153D01*
X007801Y005090D01*
X007746Y005034D01*
X007682Y004988D01*
X007612Y004952D01*
X007537Y004928D01*
X007459Y004915D01*
X007364Y004915D01*
X007564Y004715D01*
X008108Y004715D01*
X008308Y004915D01*
X008040Y005183D01*
X008040Y005647D01*
X008300Y005907D01*
X008300Y006475D01*
X008346Y006585D01*
X008430Y006670D01*
X008540Y006715D01*
X013160Y006715D01*
X013270Y006670D01*
X013934Y006005D01*
X014344Y006005D01*
X014410Y005940D01*
X014410Y007451D01*
X000600Y007451D01*
X000600Y006485D01*
X000625Y006495D01*
X001575Y006495D01*
X001789Y006407D01*
X001952Y006244D01*
X002040Y006031D01*
X002040Y005800D01*
X001952Y005587D01*
X001789Y005424D01*
X001769Y005415D01*
X001789Y005407D01*
X001952Y005244D01*
X001964Y005215D01*
X002278Y005215D01*
X002240Y005308D01*
X002240Y005523D01*
X002322Y005721D01*
X002474Y005873D01*
X002673Y005955D01*
X002796Y005955D01*
X002560Y006192D01*
X002560Y006639D01*
X002876Y006955D01*
X003324Y006955D01*
X003640Y006639D01*
X003640Y006192D01*
X003404Y005955D01*
X003527Y005955D01*
X003726Y005873D01*
X003878Y005721D01*
X003960Y005523D01*
X003960Y005308D01*
X003878Y005109D01*
X003726Y004958D01*
X003527Y004875D01*
X003404Y004875D01*
X003640Y004639D01*
X003640Y004192D01*
X003364Y003915D01*
X003640Y003639D01*
X003640Y003192D01*
X003404Y002955D01*
X003527Y002955D01*
X003726Y002873D01*
X003878Y002721D01*
X003960Y002523D01*
X003960Y002308D01*
X003878Y002109D01*
X003726Y001958D01*
X003527Y001875D01*
X002673Y001875D01*
X002474Y001958D01*
X002322Y002109D01*
X002240Y002308D01*
X002240Y002523D01*
X002322Y002721D01*
X002474Y002873D01*
X002673Y002955D01*
X002796Y002955D01*
X002560Y003192D01*
X002560Y003531D01*
X002476Y003615D01*
X001964Y003615D01*
X001952Y003587D01*
X001789Y003424D01*
X001713Y003392D01*
X001743Y003377D01*
X001812Y003327D01*
X001872Y003267D01*
X001922Y003198D01*
X001960Y003123D01*
X001987Y003042D01*
X002000Y002958D01*
X002000Y002955D01*
X001140Y002955D01*
X001140Y002875D01*
X001140Y002375D01*
X001502Y002375D01*
X001586Y002389D01*
X001667Y002415D01*
X001743Y002454D01*
X001812Y002503D01*
X001872Y002564D01*
X001922Y002632D01*
X001960Y002708D01*
X001987Y002789D01*
X002000Y002873D01*
X002000Y002875D01*
X001140Y002875D01*
X001060Y002875D01*
X001060Y002375D01*
X000698Y002375D01*
X000614Y002389D01*
X000600Y002393D01*
X000600Y002306D02*
X002241Y002306D01*
X002240Y002424D02*
X001686Y002424D01*
X001851Y002543D02*
X002248Y002543D01*
X002297Y002661D02*
X001937Y002661D01*
X001984Y002780D02*
X002381Y002780D01*
X002535Y002898D02*
X001140Y002898D01*
X001140Y002780D02*
X001060Y002780D01*
X001060Y002661D02*
X001140Y002661D01*
X001140Y002543D02*
X001060Y002543D01*
X001060Y002424D02*
X001140Y002424D01*
X000600Y002187D02*
X002290Y002187D01*
X002363Y002069D02*
X000600Y002069D01*
X000600Y001950D02*
X002491Y001950D01*
X003709Y001950D02*
X006593Y001950D01*
X006419Y002069D02*
X003837Y002069D01*
X003910Y002187D02*
X006335Y002187D01*
X006291Y002306D02*
X003959Y002306D01*
X003960Y002424D02*
X007080Y002424D01*
X007120Y002424D02*
X008580Y002424D01*
X008620Y002424D02*
X010745Y002424D01*
X010816Y002306D02*
X009120Y002306D01*
X009107Y002187D02*
X010904Y002187D01*
X011155Y002069D02*
X008989Y002069D01*
X008870Y001950D02*
X010468Y001950D01*
X010246Y001832D02*
X009886Y001832D01*
X010008Y001713D02*
X010134Y001713D01*
X010084Y001595D02*
X010073Y001595D01*
X009609Y001595D02*
X009591Y001595D01*
X009591Y001713D02*
X009609Y001713D01*
X009609Y001832D02*
X009591Y001832D01*
X009314Y001832D02*
X000600Y001832D01*
X000600Y001713D02*
X009192Y001713D01*
X009127Y001595D02*
X000600Y001595D01*
X000600Y001476D02*
X009098Y001476D01*
X009098Y001358D02*
X000600Y001358D01*
X000600Y001239D02*
X009126Y001239D01*
X009190Y001121D02*
X000600Y001121D01*
X000600Y001002D02*
X009309Y001002D01*
X009591Y001002D02*
X009609Y001002D01*
X009609Y001121D02*
X009591Y001121D01*
X009591Y001239D02*
X009609Y001239D01*
X009609Y001358D02*
X009591Y001358D01*
X009591Y001476D02*
X009609Y001476D01*
X010074Y001239D02*
X010083Y001239D01*
X010132Y001121D02*
X010010Y001121D01*
X009891Y001002D02*
X010242Y001002D01*
X010459Y000884D02*
X000600Y000884D01*
X003665Y002898D02*
X006649Y002898D01*
X006735Y003017D02*
X003465Y003017D01*
X003584Y003135D02*
X006616Y003135D01*
X006560Y003254D02*
X003640Y003254D01*
X003640Y003372D02*
X006560Y003372D01*
X006560Y003491D02*
X003640Y003491D01*
X003640Y003609D02*
X006560Y003609D01*
X006649Y003728D02*
X003551Y003728D01*
X003433Y003846D02*
X006767Y003846D01*
X006787Y003965D02*
X003413Y003965D01*
X003532Y004083D02*
X006668Y004083D01*
X006560Y004202D02*
X003640Y004202D01*
X003640Y004320D02*
X006560Y004320D01*
X006560Y004439D02*
X003640Y004439D01*
X003640Y004557D02*
X006560Y004557D01*
X006597Y004676D02*
X003603Y004676D01*
X003485Y004794D02*
X006715Y004794D01*
X006834Y004913D02*
X003618Y004913D01*
X003800Y005031D02*
X006458Y005031D01*
X006355Y005150D02*
X003895Y005150D01*
X003944Y005268D02*
X006302Y005268D01*
X006280Y005387D02*
X003960Y005387D01*
X003960Y005505D02*
X006288Y005505D01*
X006325Y005624D02*
X003918Y005624D01*
X003857Y005742D02*
X006400Y005742D01*
X006553Y005861D02*
X003738Y005861D01*
X003428Y005979D02*
X006772Y005979D01*
X006654Y006098D02*
X003546Y006098D01*
X003640Y006216D02*
X006560Y006216D01*
X006560Y006335D02*
X003640Y006335D01*
X003640Y006453D02*
X006560Y006453D01*
X006560Y006572D02*
X003640Y006572D01*
X003589Y006690D02*
X006611Y006690D01*
X006730Y006809D02*
X003470Y006809D01*
X003352Y006927D02*
X006848Y006927D01*
X007352Y006927D02*
X014410Y006927D01*
X014410Y006809D02*
X007470Y006809D01*
X007589Y006690D02*
X008480Y006690D01*
X008340Y006572D02*
X007640Y006572D01*
X007640Y006453D02*
X008300Y006453D01*
X008300Y006335D02*
X007640Y006335D01*
X007640Y006216D02*
X008300Y006216D01*
X008300Y006098D02*
X007546Y006098D01*
X007428Y005979D02*
X008300Y005979D01*
X008254Y005861D02*
X007647Y005861D01*
X007800Y005742D02*
X008135Y005742D01*
X008040Y005624D02*
X007875Y005624D01*
X007912Y005505D02*
X008040Y005505D01*
X008040Y005387D02*
X007920Y005387D01*
X007898Y005268D02*
X008040Y005268D01*
X008074Y005150D02*
X007845Y005150D01*
X007742Y005031D02*
X008192Y005031D01*
X008306Y004913D02*
X007366Y004913D01*
X007485Y004794D02*
X008187Y004794D01*
X008894Y004913D02*
X011306Y004913D01*
X011192Y005031D02*
X009008Y005031D01*
X009126Y005150D02*
X011074Y005150D01*
X011040Y005268D02*
X009160Y005268D01*
X009160Y005387D02*
X011040Y005387D01*
X011040Y005505D02*
X009160Y005505D01*
X009160Y005624D02*
X011040Y005624D01*
X011135Y005742D02*
X009065Y005742D01*
X008946Y005861D02*
X011254Y005861D01*
X011946Y005861D02*
X012768Y005861D01*
X012649Y005742D02*
X012065Y005742D01*
X012160Y005624D02*
X012550Y005624D01*
X012550Y005505D02*
X012160Y005505D01*
X012160Y005387D02*
X013060Y005387D01*
X013060Y005505D02*
X013140Y005505D01*
X013140Y005624D02*
X013060Y005624D01*
X013060Y005742D02*
X013140Y005742D01*
X013140Y005861D02*
X013060Y005861D01*
X013112Y005979D02*
X008900Y005979D01*
X008900Y006098D02*
X012993Y006098D01*
X013486Y006453D02*
X014410Y006453D01*
X014410Y006335D02*
X013605Y006335D01*
X013723Y006216D02*
X014410Y006216D01*
X014410Y006098D02*
X013842Y006098D01*
X014370Y005979D02*
X014410Y005979D01*
X014410Y006572D02*
X013368Y006572D01*
X013220Y006690D02*
X014410Y006690D01*
X014410Y007046D02*
X000600Y007046D01*
X000600Y007164D02*
X014410Y007164D01*
X014410Y007283D02*
X000600Y007283D01*
X000600Y007401D02*
X014410Y007401D01*
X012550Y005268D02*
X012160Y005268D01*
X012100Y004915D02*
X012600Y004915D01*
X011187Y004794D02*
X009013Y004794D01*
X009131Y004676D02*
X011069Y004676D01*
X011040Y004557D02*
X009160Y004557D01*
X009160Y004439D02*
X011040Y004439D01*
X011040Y004320D02*
X009160Y004320D01*
X009160Y004202D02*
X011009Y004202D01*
X010851Y004083D02*
X009060Y004083D01*
X008941Y003965D02*
X010780Y003965D01*
X010709Y003846D02*
X008961Y003846D01*
X009079Y003728D02*
X010638Y003728D01*
X010567Y003609D02*
X009160Y003609D01*
X009160Y003491D02*
X010507Y003491D01*
X010500Y003372D02*
X009160Y003372D01*
X009160Y003254D02*
X010500Y003254D01*
X010500Y003135D02*
X009112Y003135D01*
X008993Y003017D02*
X010500Y003017D01*
X010499Y002898D02*
X008875Y002898D01*
X008971Y002780D02*
X010531Y002780D01*
X010603Y002661D02*
X009089Y002661D01*
X009120Y002543D02*
X010674Y002543D01*
X010732Y001950D02*
X011273Y001950D01*
X011066Y001713D02*
X014410Y001713D01*
X014410Y001595D02*
X011116Y001595D01*
X011145Y001476D02*
X014410Y001476D01*
X014410Y001358D02*
X011145Y001358D01*
X011117Y001239D02*
X014410Y001239D01*
X014410Y001121D02*
X011068Y001121D01*
X010958Y001002D02*
X014410Y001002D01*
X014410Y000884D02*
X010741Y000884D01*
X010954Y001832D02*
X014410Y001832D01*
X014410Y001950D02*
X011927Y001950D01*
X012045Y002069D02*
X014410Y002069D01*
X014410Y002187D02*
X012160Y002187D01*
X012160Y002306D02*
X012385Y002306D01*
X012267Y002424D02*
X012160Y002424D01*
X013915Y002306D02*
X014410Y002306D01*
X014410Y002424D02*
X014033Y002424D01*
X014152Y002543D02*
X014410Y002543D01*
X014410Y002661D02*
X014270Y002661D01*
X014369Y002780D02*
X014410Y002780D01*
X012200Y003915D02*
X011100Y003915D01*
X008620Y002306D02*
X008580Y002306D01*
X008580Y002187D02*
X008620Y002187D01*
X008620Y002069D02*
X008580Y002069D01*
X008580Y001950D02*
X008620Y001950D01*
X008330Y001950D02*
X007607Y001950D01*
X007781Y002069D02*
X008211Y002069D01*
X008093Y002187D02*
X007865Y002187D01*
X007909Y002306D02*
X008080Y002306D01*
X008080Y002543D02*
X007904Y002543D01*
X007856Y002661D02*
X008111Y002661D01*
X008229Y002780D02*
X007763Y002780D01*
X007551Y002898D02*
X008325Y002898D01*
X008207Y003017D02*
X007465Y003017D01*
X006437Y002780D02*
X003819Y002780D01*
X003903Y002661D02*
X006344Y002661D01*
X006296Y002543D02*
X003952Y002543D01*
X002735Y003017D02*
X001991Y003017D01*
X001954Y003135D02*
X002616Y003135D01*
X002560Y003254D02*
X001882Y003254D01*
X001750Y003372D02*
X002560Y003372D01*
X002560Y003491D02*
X001856Y003491D01*
X001961Y003609D02*
X002482Y003609D01*
X002256Y005268D02*
X001927Y005268D01*
X001809Y005387D02*
X002240Y005387D01*
X002240Y005505D02*
X001870Y005505D01*
X001967Y005624D02*
X002282Y005624D01*
X002343Y005742D02*
X002016Y005742D01*
X002040Y005861D02*
X002462Y005861D01*
X002772Y005979D02*
X002040Y005979D01*
X002012Y006098D02*
X002654Y006098D01*
X002560Y006216D02*
X001963Y006216D01*
X001861Y006335D02*
X002560Y006335D01*
X002560Y006453D02*
X001677Y006453D01*
X002560Y006572D02*
X000600Y006572D01*
X000600Y006690D02*
X002611Y006690D01*
X002730Y006809D02*
X000600Y006809D01*
X000600Y006927D02*
X002848Y006927D01*
X007080Y002306D02*
X007120Y002306D01*
X007120Y002187D02*
X007080Y002187D01*
X007080Y002069D02*
X007120Y002069D01*
X007120Y001950D02*
X007080Y001950D01*
D19*
X012600Y004915D02*
X013600Y004915D01*
M02*
