%
M48
M72
T01C0.0276
T02C0.0320
T03C0.0400
%
T01
X9600Y1415
X10600Y1415
T02
X3100Y2415
X3100Y3415
X3100Y4415
X3100Y5415
X3100Y6415
X7100Y6415
X7100Y5415
X8600Y5415
X8600Y4415
X7100Y4415
X7100Y3415
X8600Y3415
X8600Y2415
X7100Y2415
X11600Y2415
X11600Y3415
X11600Y4415
X11600Y5415
T03
X13100Y5415
X14100Y5415
X14100Y4415
X13100Y4415
X13100Y3415
X14100Y3415
X1100Y2915
X1100Y3915
X1100Y4915
X1100Y5915
M30
