G75*
%MOIN*%
%OFA0B0*%
%FSLAX24Y24*%
%IPPOS*%
%LPD*%
%AMOC8*
5,1,8,0,0,1.08239X$1,22.5*
%
%ADD10C,0.0000*%
%ADD11OC8,0.0680*%
%ADD12C,0.0650*%
%ADD13C,0.0720*%
%ADD14C,0.0640*%
%ADD15OC8,0.0640*%
%ADD16R,0.0740X0.0740*%
%ADD17OC8,0.0740*%
%ADD18C,0.0120*%
D10*
X000100Y000415D02*
X000100Y007911D01*
X014870Y007911D01*
X014870Y000415D01*
X000100Y000415D01*
D11*
X008600Y002415D03*
X008600Y003415D03*
X008600Y004415D03*
X008600Y005415D03*
X011600Y005415D03*
X011600Y004415D03*
X011600Y003415D03*
X011600Y002415D03*
D12*
X010600Y001415D03*
X009600Y001415D03*
D13*
X001460Y002915D02*
X000740Y002915D01*
X000740Y003915D02*
X001460Y003915D01*
X001460Y004915D02*
X000740Y004915D01*
X000740Y005915D02*
X001460Y005915D01*
D14*
X002780Y005415D02*
X003420Y005415D01*
X006780Y005415D02*
X007420Y005415D01*
X007420Y002415D02*
X006780Y002415D01*
X003420Y002415D02*
X002780Y002415D01*
D15*
X003100Y003415D03*
X003100Y004415D03*
X003100Y006415D03*
X007100Y006415D03*
X007100Y004415D03*
X007100Y003415D03*
D16*
X014100Y003415D03*
D17*
X013100Y003415D03*
X013100Y004415D03*
X014100Y004415D03*
X014100Y005415D03*
X013100Y005415D03*
D18*
X013600Y005750D02*
X013344Y006005D01*
X012856Y006005D01*
X012510Y005660D01*
X012510Y005171D01*
X012766Y004915D01*
X012510Y004660D01*
X012510Y004171D01*
X012794Y003887D01*
X012550Y003643D01*
X012550Y003455D01*
X013060Y003455D01*
X013060Y003375D01*
X013140Y003375D01*
X013140Y002865D01*
X013328Y002865D01*
X013510Y003048D01*
X013510Y002954D01*
X013639Y002825D01*
X014410Y002825D01*
X014410Y000875D01*
X009720Y000875D01*
X009909Y000953D01*
X010062Y001107D01*
X010122Y001252D01*
X010132Y001222D01*
X010168Y001151D01*
X010215Y001086D01*
X010271Y001030D01*
X010335Y000983D01*
X010406Y000947D01*
X010482Y000923D01*
X010560Y000910D01*
X010591Y000910D01*
X010591Y001406D01*
X010609Y001406D01*
X010609Y000910D01*
X010640Y000910D01*
X010718Y000923D01*
X010794Y000947D01*
X010865Y000983D01*
X010929Y001030D01*
X010985Y001086D01*
X011032Y001151D01*
X011068Y001222D01*
X011093Y001297D01*
X011105Y001376D01*
X011105Y001406D01*
X010609Y001406D01*
X010609Y001424D01*
X011105Y001424D01*
X011105Y001455D01*
X011093Y001534D01*
X011068Y001609D01*
X011032Y001680D01*
X010985Y001744D01*
X010929Y001801D01*
X010865Y001847D01*
X010794Y001883D01*
X010718Y001908D01*
X010640Y001920D01*
X010609Y001920D01*
X010609Y001424D01*
X010591Y001424D01*
X010591Y001920D01*
X010560Y001920D01*
X010482Y001908D01*
X010406Y001883D01*
X010335Y001847D01*
X010271Y001801D01*
X010215Y001744D01*
X010168Y001680D01*
X010132Y001609D01*
X010122Y001579D01*
X010062Y001724D01*
X009909Y001877D01*
X009708Y001960D01*
X009492Y001960D01*
X009291Y001877D01*
X009138Y001724D01*
X009055Y001524D01*
X009055Y001307D01*
X009138Y001107D01*
X009291Y000953D01*
X009480Y000875D01*
X000600Y000875D01*
X000600Y002346D01*
X000625Y002335D01*
X001575Y002335D01*
X001789Y002424D01*
X002240Y002424D01*
X002240Y002523D02*
X002240Y002308D01*
X002322Y002109D01*
X002474Y001958D01*
X002673Y001875D01*
X003527Y001875D01*
X003726Y001958D01*
X003878Y002109D01*
X003960Y002308D01*
X003960Y002523D01*
X003878Y002721D01*
X003726Y002873D01*
X003527Y002955D01*
X003404Y002955D01*
X003640Y003192D01*
X003640Y003639D01*
X003364Y003915D01*
X003640Y004192D01*
X003640Y004639D01*
X003404Y004875D01*
X003527Y004875D01*
X003726Y004958D01*
X003878Y005109D01*
X003960Y005308D01*
X003960Y005523D01*
X003878Y005721D01*
X003726Y005873D01*
X003527Y005955D01*
X003404Y005955D01*
X003640Y006192D01*
X003640Y006639D01*
X003324Y006955D01*
X002876Y006955D01*
X002560Y006639D01*
X002560Y006192D01*
X002796Y005955D01*
X002673Y005955D01*
X002474Y005873D01*
X002322Y005721D01*
X002240Y005523D01*
X002240Y005308D01*
X002322Y005109D01*
X002474Y004958D01*
X002673Y004875D01*
X002796Y004875D01*
X002560Y004639D01*
X002560Y004192D01*
X002836Y003915D01*
X002560Y003639D01*
X002560Y003192D01*
X002796Y002955D01*
X002673Y002955D01*
X002474Y002873D01*
X002322Y002721D01*
X002240Y002523D01*
X002248Y002543D02*
X001908Y002543D01*
X001952Y002587D02*
X002040Y002800D01*
X002040Y003031D01*
X001952Y003244D01*
X001789Y003407D01*
X001769Y003415D01*
X001789Y003424D01*
X001952Y003587D01*
X002040Y003800D01*
X002040Y004031D01*
X001952Y004244D01*
X001789Y004407D01*
X001769Y004415D01*
X001789Y004424D01*
X001952Y004587D01*
X002040Y004800D01*
X002040Y005031D01*
X001952Y005244D01*
X001789Y005407D01*
X001713Y005438D01*
X001743Y005454D01*
X001812Y005503D01*
X001872Y005564D01*
X001922Y005632D01*
X001960Y005708D01*
X001987Y005789D01*
X002000Y005873D01*
X002000Y005875D01*
X001140Y005875D01*
X001140Y005955D01*
X002000Y005955D01*
X002000Y005958D01*
X001987Y006042D01*
X001960Y006123D01*
X001922Y006198D01*
X001872Y006267D01*
X001812Y006327D01*
X001743Y006377D01*
X001667Y006416D01*
X001586Y006442D01*
X001502Y006455D01*
X001140Y006455D01*
X001140Y005955D01*
X001060Y005955D01*
X001060Y006455D01*
X000698Y006455D01*
X000614Y006442D01*
X000600Y006438D01*
X000600Y007451D01*
X014410Y007451D01*
X014410Y005940D01*
X014344Y006005D01*
X013856Y006005D01*
X013600Y005750D01*
X013489Y005861D02*
X013711Y005861D01*
X013830Y005979D02*
X013370Y005979D01*
X012830Y005979D02*
X007371Y005979D01*
X007347Y005955D02*
X007600Y006208D01*
X007600Y006395D01*
X007120Y006395D01*
X007120Y006435D01*
X007600Y006435D01*
X007600Y006622D01*
X007307Y006915D01*
X007120Y006915D01*
X007120Y006435D01*
X007080Y006435D01*
X007080Y006395D01*
X006600Y006395D01*
X006600Y006208D01*
X006853Y005955D01*
X006673Y005955D01*
X006474Y005873D01*
X006322Y005721D01*
X006240Y005523D01*
X006240Y005308D01*
X006322Y005109D01*
X006474Y004958D01*
X006673Y004875D01*
X006796Y004875D01*
X006560Y004639D01*
X006560Y004192D01*
X006836Y003915D01*
X006560Y003639D01*
X006560Y003192D01*
X006796Y002955D01*
X006673Y002955D01*
X006474Y002873D01*
X006322Y002721D01*
X006240Y002523D01*
X006240Y002308D01*
X006322Y002109D01*
X006474Y001958D01*
X006673Y001875D01*
X007527Y001875D01*
X007726Y001958D01*
X007878Y002109D01*
X007960Y002308D01*
X007960Y002523D01*
X007878Y002721D01*
X007726Y002873D01*
X007527Y002955D01*
X007404Y002955D01*
X007640Y003192D01*
X007640Y003639D01*
X007364Y003915D01*
X007640Y004192D01*
X007640Y004639D01*
X007404Y004875D01*
X007527Y004875D01*
X007726Y004958D01*
X007878Y005109D01*
X007960Y005308D01*
X007960Y005523D01*
X007878Y005721D01*
X007726Y005873D01*
X007527Y005955D01*
X007347Y005955D01*
X007490Y006098D02*
X014410Y006098D01*
X014410Y006216D02*
X007600Y006216D01*
X007600Y006335D02*
X014410Y006335D01*
X014410Y006453D02*
X007600Y006453D01*
X007600Y006572D02*
X014410Y006572D01*
X014410Y006690D02*
X007532Y006690D01*
X007414Y006809D02*
X014410Y006809D01*
X014410Y006927D02*
X003352Y006927D01*
X003470Y006809D02*
X006786Y006809D01*
X006893Y006915D02*
X006600Y006622D01*
X006600Y006435D01*
X007080Y006435D01*
X007080Y006915D01*
X006893Y006915D01*
X007080Y006809D02*
X007120Y006809D01*
X007120Y006690D02*
X007080Y006690D01*
X007080Y006572D02*
X007120Y006572D01*
X007120Y006453D02*
X007080Y006453D01*
X006668Y006690D02*
X003589Y006690D01*
X003640Y006572D02*
X006600Y006572D01*
X006600Y006453D02*
X003640Y006453D01*
X003640Y006335D02*
X006600Y006335D01*
X006600Y006216D02*
X003640Y006216D01*
X003546Y006098D02*
X006710Y006098D01*
X006829Y005979D02*
X003428Y005979D01*
X003738Y005861D02*
X006462Y005861D01*
X006343Y005742D02*
X003857Y005742D01*
X003918Y005624D02*
X006282Y005624D01*
X006240Y005505D02*
X003960Y005505D01*
X003960Y005387D02*
X006240Y005387D01*
X006256Y005268D02*
X003944Y005268D01*
X003895Y005150D02*
X006305Y005150D01*
X006400Y005031D02*
X003800Y005031D01*
X003618Y004913D02*
X006582Y004913D01*
X006715Y004794D02*
X003485Y004794D01*
X003603Y004676D02*
X006597Y004676D01*
X006560Y004557D02*
X003640Y004557D01*
X003640Y004439D02*
X006560Y004439D01*
X006560Y004320D02*
X003640Y004320D01*
X003640Y004202D02*
X006560Y004202D01*
X006668Y004083D02*
X003532Y004083D01*
X003413Y003965D02*
X006787Y003965D01*
X006767Y003846D02*
X003433Y003846D01*
X003551Y003728D02*
X006649Y003728D01*
X006560Y003609D02*
X003640Y003609D01*
X003640Y003491D02*
X006560Y003491D01*
X006560Y003372D02*
X003640Y003372D01*
X003640Y003254D02*
X006560Y003254D01*
X006616Y003135D02*
X003584Y003135D01*
X003465Y003017D02*
X006735Y003017D01*
X006535Y002898D02*
X003665Y002898D01*
X003819Y002780D02*
X006381Y002780D01*
X006297Y002661D02*
X003903Y002661D01*
X003952Y002543D02*
X006248Y002543D01*
X006240Y002424D02*
X003960Y002424D01*
X003959Y002306D02*
X006241Y002306D01*
X006290Y002187D02*
X003910Y002187D01*
X003837Y002069D02*
X006363Y002069D01*
X006491Y001950D02*
X003709Y001950D01*
X002491Y001950D02*
X000600Y001950D01*
X000600Y001832D02*
X009246Y001832D01*
X009134Y001713D02*
X000600Y001713D01*
X000600Y001595D02*
X009084Y001595D01*
X009055Y001476D02*
X000600Y001476D01*
X000600Y001358D02*
X009055Y001358D01*
X009083Y001239D02*
X000600Y001239D01*
X000600Y001121D02*
X009132Y001121D01*
X009242Y001002D02*
X000600Y001002D01*
X000600Y000884D02*
X009459Y000884D01*
X009741Y000884D02*
X014410Y000884D01*
X014410Y001002D02*
X010891Y001002D01*
X011010Y001121D02*
X014410Y001121D01*
X014410Y001239D02*
X011074Y001239D01*
X011102Y001358D02*
X014410Y001358D01*
X014410Y001476D02*
X011102Y001476D01*
X011073Y001595D02*
X014410Y001595D01*
X014410Y001713D02*
X011008Y001713D01*
X010886Y001832D02*
X014410Y001832D01*
X014410Y001950D02*
X011927Y001950D01*
X011832Y001855D02*
X012160Y002183D01*
X012160Y002647D01*
X011892Y002915D01*
X012160Y003183D01*
X012160Y003647D01*
X011892Y003915D01*
X012160Y004183D01*
X012160Y004647D01*
X011864Y004944D01*
X012120Y005200D01*
X012120Y005395D01*
X011620Y005395D01*
X011620Y005435D01*
X012120Y005435D01*
X012120Y005631D01*
X011815Y005935D01*
X011620Y005935D01*
X011620Y005435D01*
X011580Y005435D01*
X011580Y005395D01*
X011080Y005395D01*
X011080Y005200D01*
X011336Y004944D01*
X011040Y004647D01*
X011040Y004183D01*
X011308Y003915D01*
X011040Y003647D01*
X011040Y003183D01*
X011308Y002915D01*
X011040Y002647D01*
X011040Y002183D01*
X011368Y001855D01*
X011832Y001855D01*
X012045Y002069D02*
X014410Y002069D01*
X014410Y002187D02*
X012160Y002187D01*
X012160Y002306D02*
X014410Y002306D01*
X014410Y002424D02*
X012160Y002424D01*
X012160Y002543D02*
X014410Y002543D01*
X014410Y002661D02*
X012146Y002661D01*
X012027Y002780D02*
X014410Y002780D01*
X013566Y002898D02*
X013361Y002898D01*
X013479Y003017D02*
X013510Y003017D01*
X013140Y003017D02*
X013060Y003017D01*
X013060Y003135D02*
X013140Y003135D01*
X013140Y003254D02*
X013060Y003254D01*
X013060Y003372D02*
X013140Y003372D01*
X013060Y003375D02*
X013060Y002865D01*
X012872Y002865D01*
X012550Y003188D01*
X012550Y003375D01*
X013060Y003375D01*
X012721Y003017D02*
X011993Y003017D01*
X011909Y002898D02*
X012839Y002898D01*
X013060Y002898D02*
X013140Y002898D01*
X012602Y003135D02*
X012112Y003135D01*
X012160Y003254D02*
X012550Y003254D01*
X012550Y003372D02*
X012160Y003372D01*
X012160Y003491D02*
X012550Y003491D01*
X012550Y003609D02*
X012160Y003609D01*
X012079Y003728D02*
X012635Y003728D01*
X012753Y003846D02*
X011961Y003846D01*
X011941Y003965D02*
X012716Y003965D01*
X012598Y004083D02*
X012060Y004083D01*
X012160Y004202D02*
X012510Y004202D01*
X012510Y004320D02*
X012160Y004320D01*
X012160Y004439D02*
X012510Y004439D01*
X012510Y004557D02*
X012160Y004557D01*
X012131Y004676D02*
X012526Y004676D01*
X012645Y004794D02*
X012013Y004794D01*
X011894Y004913D02*
X012763Y004913D01*
X012650Y005031D02*
X011951Y005031D01*
X012070Y005150D02*
X012531Y005150D01*
X012510Y005268D02*
X012120Y005268D01*
X012120Y005387D02*
X012510Y005387D01*
X012510Y005505D02*
X012120Y005505D01*
X012120Y005624D02*
X012510Y005624D01*
X012593Y005742D02*
X012008Y005742D01*
X011890Y005861D02*
X012711Y005861D01*
X011620Y005861D02*
X011580Y005861D01*
X011580Y005935D02*
X011385Y005935D01*
X011080Y005631D01*
X011080Y005435D01*
X011580Y005435D01*
X011580Y005935D01*
X011310Y005861D02*
X008946Y005861D01*
X009065Y005742D02*
X011192Y005742D01*
X011080Y005624D02*
X009160Y005624D01*
X009160Y005647D02*
X008832Y005975D01*
X008368Y005975D01*
X008040Y005647D01*
X008040Y005183D01*
X008308Y004915D01*
X008040Y004647D01*
X008040Y004183D01*
X008308Y003915D01*
X008040Y003647D01*
X008040Y003183D01*
X008308Y002915D01*
X008040Y002647D01*
X008040Y002183D01*
X008368Y001855D01*
X008832Y001855D01*
X009160Y002183D01*
X009160Y002647D01*
X008892Y002915D01*
X009160Y003183D01*
X009160Y003647D01*
X008892Y003915D01*
X009160Y004183D01*
X009160Y004647D01*
X008892Y004915D01*
X009160Y005183D01*
X009160Y005647D01*
X009160Y005505D02*
X011080Y005505D01*
X011080Y005387D02*
X009160Y005387D01*
X009160Y005268D02*
X011080Y005268D01*
X011130Y005150D02*
X009126Y005150D01*
X009008Y005031D02*
X011249Y005031D01*
X011306Y004913D02*
X008894Y004913D01*
X009013Y004794D02*
X011187Y004794D01*
X011069Y004676D02*
X009131Y004676D01*
X009160Y004557D02*
X011040Y004557D01*
X011040Y004439D02*
X009160Y004439D01*
X009160Y004320D02*
X011040Y004320D01*
X011040Y004202D02*
X009160Y004202D01*
X009060Y004083D02*
X011140Y004083D01*
X011259Y003965D02*
X008941Y003965D01*
X008961Y003846D02*
X011239Y003846D01*
X011121Y003728D02*
X009079Y003728D01*
X009160Y003609D02*
X011040Y003609D01*
X011040Y003491D02*
X009160Y003491D01*
X009160Y003372D02*
X011040Y003372D01*
X011040Y003254D02*
X009160Y003254D01*
X009112Y003135D02*
X011088Y003135D01*
X011207Y003017D02*
X008993Y003017D01*
X008909Y002898D02*
X011291Y002898D01*
X011173Y002780D02*
X009027Y002780D01*
X009146Y002661D02*
X011054Y002661D01*
X011040Y002543D02*
X009160Y002543D01*
X009160Y002424D02*
X011040Y002424D01*
X011040Y002306D02*
X009160Y002306D01*
X009160Y002187D02*
X011040Y002187D01*
X011155Y002069D02*
X009045Y002069D01*
X008927Y001950D02*
X009468Y001950D01*
X009732Y001950D02*
X011273Y001950D01*
X010609Y001832D02*
X010591Y001832D01*
X010591Y001713D02*
X010609Y001713D01*
X010609Y001595D02*
X010591Y001595D01*
X010591Y001476D02*
X010609Y001476D01*
X010609Y001358D02*
X010591Y001358D01*
X010591Y001239D02*
X010609Y001239D01*
X010609Y001121D02*
X010591Y001121D01*
X010591Y001002D02*
X010609Y001002D01*
X010309Y001002D02*
X009958Y001002D01*
X010068Y001121D02*
X010190Y001121D01*
X010126Y001239D02*
X010117Y001239D01*
X010116Y001595D02*
X010127Y001595D01*
X010066Y001713D02*
X010192Y001713D01*
X010314Y001832D02*
X009954Y001832D01*
X008273Y001950D02*
X007709Y001950D01*
X007837Y002069D02*
X008155Y002069D01*
X008040Y002187D02*
X007910Y002187D01*
X007959Y002306D02*
X008040Y002306D01*
X008040Y002424D02*
X007960Y002424D01*
X007952Y002543D02*
X008040Y002543D01*
X008054Y002661D02*
X007903Y002661D01*
X007819Y002780D02*
X008173Y002780D01*
X008291Y002898D02*
X007665Y002898D01*
X007465Y003017D02*
X008207Y003017D01*
X008088Y003135D02*
X007584Y003135D01*
X007640Y003254D02*
X008040Y003254D01*
X008040Y003372D02*
X007640Y003372D01*
X007640Y003491D02*
X008040Y003491D01*
X008040Y003609D02*
X007640Y003609D01*
X007551Y003728D02*
X008121Y003728D01*
X008239Y003846D02*
X007433Y003846D01*
X007413Y003965D02*
X008259Y003965D01*
X008140Y004083D02*
X007532Y004083D01*
X007640Y004202D02*
X008040Y004202D01*
X008040Y004320D02*
X007640Y004320D01*
X007640Y004439D02*
X008040Y004439D01*
X008040Y004557D02*
X007640Y004557D01*
X007603Y004676D02*
X008069Y004676D01*
X008187Y004794D02*
X007485Y004794D01*
X007618Y004913D02*
X008306Y004913D01*
X008192Y005031D02*
X007800Y005031D01*
X007895Y005150D02*
X008074Y005150D01*
X008040Y005268D02*
X007944Y005268D01*
X007960Y005387D02*
X008040Y005387D01*
X008040Y005505D02*
X007960Y005505D01*
X007918Y005624D02*
X008040Y005624D01*
X008135Y005742D02*
X007857Y005742D01*
X007738Y005861D02*
X008254Y005861D01*
X011580Y005742D02*
X011620Y005742D01*
X011620Y005624D02*
X011580Y005624D01*
X011580Y005505D02*
X011620Y005505D01*
X014370Y005979D02*
X014410Y005979D01*
X014410Y007046D02*
X000600Y007046D01*
X000600Y007164D02*
X014410Y007164D01*
X014410Y007283D02*
X000600Y007283D01*
X000600Y007401D02*
X014410Y007401D01*
X002848Y006927D02*
X000600Y006927D01*
X000600Y006809D02*
X002730Y006809D01*
X002611Y006690D02*
X000600Y006690D01*
X000600Y006572D02*
X002560Y006572D01*
X002560Y006453D02*
X001515Y006453D01*
X001801Y006335D02*
X002560Y006335D01*
X002560Y006216D02*
X001909Y006216D01*
X001968Y006098D02*
X002654Y006098D01*
X002772Y005979D02*
X001997Y005979D01*
X001998Y005861D02*
X002462Y005861D01*
X002343Y005742D02*
X001972Y005742D01*
X001916Y005624D02*
X002282Y005624D01*
X002240Y005505D02*
X001814Y005505D01*
X001809Y005387D02*
X002240Y005387D01*
X002256Y005268D02*
X001927Y005268D01*
X001991Y005150D02*
X002305Y005150D01*
X002400Y005031D02*
X002040Y005031D01*
X002040Y004913D02*
X002582Y004913D01*
X002715Y004794D02*
X002038Y004794D01*
X001989Y004676D02*
X002597Y004676D01*
X002560Y004557D02*
X001922Y004557D01*
X001804Y004439D02*
X002560Y004439D01*
X002560Y004320D02*
X001875Y004320D01*
X001969Y004202D02*
X002560Y004202D01*
X002668Y004083D02*
X002018Y004083D01*
X002040Y003965D02*
X002787Y003965D01*
X002767Y003846D02*
X002040Y003846D01*
X002010Y003728D02*
X002649Y003728D01*
X002560Y003609D02*
X001961Y003609D01*
X001856Y003491D02*
X002560Y003491D01*
X002560Y003372D02*
X001823Y003372D01*
X001942Y003254D02*
X002560Y003254D01*
X002616Y003135D02*
X001997Y003135D01*
X002040Y003017D02*
X002735Y003017D01*
X002535Y002898D02*
X002040Y002898D01*
X002032Y002780D02*
X002381Y002780D01*
X002297Y002661D02*
X001983Y002661D01*
X001952Y002587D02*
X001789Y002424D01*
X002241Y002306D02*
X000600Y002306D01*
X000600Y002187D02*
X002290Y002187D01*
X002363Y002069D02*
X000600Y002069D01*
X001060Y005979D02*
X001140Y005979D01*
X001140Y006098D02*
X001060Y006098D01*
X001060Y006216D02*
X001140Y006216D01*
X001140Y006335D02*
X001060Y006335D01*
X001060Y006453D02*
X001140Y006453D01*
X000685Y006453D02*
X000600Y006453D01*
M02*
