G75*
%MOIN*%
%OFA0B0*%
%FSLAX24Y24*%
%IPPOS*%
%LPD*%
%AMOC8*
5,1,8,0,0,1.08239X$1,22.5*
%
%ADD10C,0.0060*%
%ADD11C,0.0080*%
%ADD12C,0.0010*%
%ADD13R,0.0140X0.0400*%
%ADD14C,0.0020*%
%ADD15C,0.0040*%
%ADD16R,0.0669X0.0295*%
%ADD17R,0.0230X0.0180*%
%ADD18R,0.0551X0.0256*%
%ADD19R,0.0690X0.0290*%
%ADD20C,0.0050*%
%ADD21R,0.0200X0.0200*%
D10*
X002300Y005400D02*
X002300Y006520D01*
X002820Y006520D01*
X002820Y006300D01*
X002820Y006520D02*
X002500Y006520D01*
X002820Y006520D02*
X002820Y005400D01*
X002820Y005620D01*
X002820Y005400D02*
X002500Y005400D01*
X002300Y005400D02*
X002820Y005400D01*
X003910Y006499D02*
X003910Y006821D01*
X003480Y007280D02*
X003480Y008035D01*
X003730Y008650D02*
X003730Y010660D01*
X005590Y010660D01*
X005590Y008650D01*
X003730Y008650D01*
X002840Y008035D02*
X002840Y007280D01*
X004410Y006821D02*
X004410Y006499D01*
X004910Y006499D02*
X004910Y006821D01*
X005410Y006821D02*
X005410Y006499D01*
X006400Y006800D02*
X006400Y007020D01*
X006720Y007020D01*
X006920Y007020D02*
X006920Y005900D01*
X006400Y005900D01*
X006400Y006120D01*
X006400Y005900D02*
X006720Y005900D01*
X006400Y005900D02*
X006400Y007020D01*
X006920Y007020D01*
D11*
X003164Y001888D02*
X003164Y001337D01*
X006156Y001337D01*
X006156Y001888D01*
X006156Y003148D02*
X006156Y003975D01*
X005880Y004959D02*
X005526Y004959D01*
X003794Y004959D02*
X003440Y004959D01*
X003164Y003975D02*
X003164Y003148D01*
X006510Y008360D02*
X008010Y008360D01*
X008260Y008610D01*
X008260Y009110D01*
X008010Y009360D01*
X006510Y009360D01*
X006260Y009110D01*
X006260Y008610D01*
X006510Y008360D01*
X006510Y009360D02*
X006260Y009610D01*
X006260Y010110D01*
X006510Y010360D01*
X008010Y010360D01*
X008260Y010110D01*
X008260Y009610D01*
X008010Y009360D01*
X008010Y010360D02*
X008260Y010610D01*
X008260Y011110D01*
X008010Y011360D01*
X006510Y011360D01*
X006260Y011110D01*
X006260Y010610D01*
X006510Y010360D01*
X006128Y010610D02*
X006128Y011110D01*
X003893Y008970D02*
X003895Y008985D01*
X003901Y008998D01*
X003910Y009010D01*
X003921Y009019D01*
X003935Y009025D01*
X003950Y009027D01*
X003965Y009025D01*
X003978Y009019D01*
X003990Y009010D01*
X003999Y008999D01*
X004005Y008985D01*
X004007Y008970D01*
X004005Y008955D01*
X003999Y008942D01*
X003990Y008930D01*
X003979Y008921D01*
X003965Y008915D01*
X003950Y008913D01*
X003935Y008915D01*
X003922Y008921D01*
X003910Y008930D01*
X003901Y008941D01*
X003895Y008955D01*
X003893Y008970D01*
D12*
X004215Y009115D02*
X004215Y009265D01*
X004165Y009265D02*
X004265Y009265D01*
X004312Y009215D02*
X004337Y009215D01*
X004337Y009115D01*
X004312Y009115D02*
X004362Y009115D01*
X004411Y009115D02*
X004411Y009215D01*
X004486Y009215D01*
X004511Y009190D01*
X004511Y009115D01*
X004558Y009140D02*
X004558Y009215D01*
X004558Y009140D02*
X004583Y009115D01*
X004658Y009115D01*
X004658Y009090D02*
X004633Y009065D01*
X004608Y009065D01*
X004658Y009090D02*
X004658Y009215D01*
X004705Y009215D02*
X004705Y009240D01*
X004730Y009265D01*
X004780Y009265D01*
X004805Y009240D01*
X004805Y009215D01*
X004780Y009190D01*
X004730Y009190D01*
X004705Y009215D01*
X004730Y009190D02*
X004705Y009165D01*
X004705Y009140D01*
X004730Y009115D01*
X004780Y009115D01*
X004805Y009140D01*
X004805Y009165D01*
X004780Y009190D01*
X004853Y009190D02*
X004903Y009215D01*
X004928Y009215D01*
X004953Y009190D01*
X004953Y009140D01*
X004928Y009115D01*
X004878Y009115D01*
X004853Y009140D01*
X004853Y009190D02*
X004853Y009265D01*
X004953Y009265D01*
X005000Y009190D02*
X005100Y009190D01*
X005147Y009240D02*
X005172Y009265D01*
X005222Y009265D01*
X005247Y009240D01*
X005247Y009215D01*
X005147Y009115D01*
X005247Y009115D01*
X005294Y009140D02*
X005395Y009240D01*
X005395Y009140D01*
X005370Y009115D01*
X005320Y009115D01*
X005294Y009140D01*
X005294Y009240D01*
X005320Y009265D01*
X005370Y009265D01*
X005395Y009240D01*
X005442Y009190D02*
X005542Y009190D01*
X005589Y009215D02*
X005614Y009190D01*
X005664Y009190D01*
X005689Y009165D01*
X005689Y009140D01*
X005664Y009115D01*
X005614Y009115D01*
X005589Y009140D01*
X005589Y009215D02*
X005589Y009240D01*
X005614Y009265D01*
X005664Y009265D01*
X005689Y009240D01*
X005736Y009265D02*
X005736Y009115D01*
X005837Y009115D02*
X005837Y009265D01*
X005787Y009215D01*
X005736Y009265D01*
X005884Y009265D02*
X005984Y009265D01*
X005934Y009265D02*
X005934Y009115D01*
X004412Y009365D02*
X004312Y009365D01*
X004362Y009365D02*
X004362Y009515D01*
X004312Y009465D01*
X004265Y009515D02*
X004265Y009390D01*
X004240Y009365D01*
X004190Y009365D01*
X004165Y009390D01*
X004165Y009515D01*
X004337Y009290D02*
X004337Y009265D01*
X002705Y010090D02*
X002705Y010140D01*
X002680Y010165D01*
X002705Y010212D02*
X002705Y010312D01*
X002705Y010262D02*
X002555Y010262D01*
X002605Y010212D01*
X002580Y010165D02*
X002555Y010140D01*
X002555Y010090D01*
X002580Y010065D01*
X002680Y010065D01*
X002705Y010090D01*
X004530Y003002D02*
X004505Y002977D01*
X004505Y002902D01*
X004655Y002902D01*
X004655Y002977D01*
X004630Y003002D01*
X004530Y003002D01*
X004505Y002854D02*
X004655Y002854D01*
X004655Y002754D02*
X004505Y002754D01*
X004555Y002804D01*
X004505Y002854D01*
X004530Y002707D02*
X004505Y002682D01*
X004505Y002632D01*
X004530Y002607D01*
X004555Y002607D01*
X004580Y002632D01*
X004580Y002682D01*
X004605Y002707D01*
X004630Y002707D01*
X004655Y002682D01*
X004655Y002632D01*
X004630Y002607D01*
X004630Y002560D02*
X004605Y002560D01*
X004580Y002535D01*
X004580Y002460D01*
X004605Y002412D02*
X004630Y002412D01*
X004655Y002387D01*
X004655Y002337D01*
X004630Y002312D01*
X004630Y002265D02*
X004505Y002265D01*
X004530Y002312D02*
X004505Y002337D01*
X004505Y002387D01*
X004530Y002412D01*
X004505Y002460D02*
X004505Y002535D01*
X004530Y002560D01*
X004555Y002560D01*
X004580Y002535D01*
X004630Y002560D02*
X004655Y002535D01*
X004655Y002460D01*
X004505Y002460D01*
X004580Y002387D02*
X004605Y002412D01*
X004580Y002387D02*
X004580Y002337D01*
X004555Y002312D01*
X004530Y002312D01*
X004630Y002265D02*
X004655Y002240D01*
X004655Y002190D01*
X004630Y002165D01*
X004505Y002165D01*
X004155Y002190D02*
X004155Y002215D01*
X004130Y002240D01*
X004005Y002240D01*
X004005Y002215D02*
X004005Y002265D01*
X004005Y002312D02*
X004005Y002387D01*
X004030Y002412D01*
X004080Y002412D01*
X004105Y002387D01*
X004105Y002312D01*
X004155Y002312D02*
X004005Y002312D01*
X004030Y002460D02*
X004005Y002485D01*
X004005Y002535D01*
X004030Y002560D01*
X004055Y002560D01*
X004155Y002460D01*
X004155Y002560D01*
X004155Y002190D02*
X004130Y002165D01*
D13*
X003910Y008430D03*
X004410Y008430D03*
X004910Y008430D03*
X005410Y008430D03*
X005410Y010880D03*
X004910Y010880D03*
X004410Y010880D03*
X003910Y010880D03*
D14*
X003547Y011534D02*
X002773Y011534D01*
X002773Y009586D01*
X003547Y009586D01*
X003547Y011534D01*
X003547Y008634D02*
X002773Y008634D01*
X002773Y006686D01*
X003547Y006686D01*
X003547Y008634D01*
X003773Y007437D02*
X004547Y007437D01*
X004547Y005883D01*
X003773Y005883D01*
X003773Y007437D01*
X004773Y007437D02*
X004773Y005883D01*
X005547Y005883D01*
X005547Y007437D01*
X004773Y007437D01*
D15*
X004740Y006827D02*
X004510Y006827D01*
X004433Y006750D01*
X004510Y006673D01*
X004740Y006673D01*
X004740Y006520D02*
X004433Y006520D01*
X004433Y006596D01*
X004510Y006673D01*
X004580Y006673D02*
X005040Y006673D01*
X005040Y006520D02*
X005040Y006827D01*
X004733Y006520D02*
X004580Y006673D01*
X004510Y006366D02*
X004740Y006366D01*
X004810Y006366D02*
X004887Y006289D01*
X004887Y006059D01*
X004740Y006059D02*
X004280Y006059D01*
X004433Y006136D02*
X004433Y006289D01*
X004510Y006366D01*
X004580Y006289D02*
X004656Y006366D01*
X004810Y006366D01*
X004887Y006213D02*
X005040Y006366D01*
X005040Y006059D02*
X004580Y006059D01*
X004580Y006289D01*
X004433Y006136D02*
X004510Y006059D01*
X004510Y005906D02*
X004433Y005829D01*
X004433Y005676D01*
X004510Y005599D01*
X004663Y005599D01*
X004740Y005676D01*
X004740Y005829D01*
X004663Y005906D01*
X004510Y005906D01*
X003790Y005809D02*
X003790Y006039D01*
X003713Y006116D01*
X003406Y006116D01*
X003330Y006039D01*
X003330Y005809D01*
X003790Y005809D01*
X003740Y005829D02*
X003663Y005906D01*
X003510Y005906D01*
X003433Y005829D01*
X003433Y005676D01*
X003510Y005599D01*
X003663Y005599D01*
X003740Y005676D01*
X003740Y005829D01*
X003740Y006059D02*
X003280Y006059D01*
X003433Y006136D02*
X003433Y006289D01*
X003510Y006366D01*
X003740Y006366D01*
X003790Y006423D02*
X003330Y006423D01*
X003483Y006270D01*
X003433Y006136D02*
X003510Y006059D01*
X003790Y006270D02*
X003790Y006577D01*
X003740Y006520D02*
X003433Y006520D01*
X003433Y006596D01*
X003510Y006673D01*
X003433Y006750D01*
X003510Y006827D01*
X003740Y006827D01*
X003740Y006673D02*
X003510Y006673D01*
X003783Y007130D02*
X003630Y007283D01*
X004090Y007283D01*
X004090Y007130D02*
X004090Y007437D01*
X004090Y007590D02*
X004013Y007590D01*
X004013Y007667D01*
X004090Y007667D01*
X004090Y007590D01*
X004013Y007821D02*
X004090Y007897D01*
X004090Y008051D01*
X004013Y008128D01*
X003860Y008128D01*
X003783Y008051D01*
X003783Y007974D01*
X003860Y007821D01*
X003630Y007821D01*
X003630Y008128D01*
X003630Y008281D02*
X004090Y008281D01*
X003937Y008281D02*
X003783Y008511D01*
X003937Y008281D02*
X004090Y008511D01*
X004013Y009125D02*
X003706Y009125D01*
X003630Y009202D01*
X003630Y009355D01*
X003706Y009432D01*
X004013Y009432D01*
X004090Y009355D01*
X004090Y009202D01*
X004013Y009125D01*
X004090Y009585D02*
X003630Y009585D01*
X003783Y009662D02*
X003783Y009816D01*
X003860Y009892D01*
X004090Y009892D01*
X004090Y010046D02*
X003783Y010046D01*
X003783Y010123D01*
X003860Y010199D01*
X003783Y010276D01*
X003860Y010353D01*
X004090Y010353D01*
X004090Y010199D02*
X003860Y010199D01*
X003470Y010180D02*
X003470Y010940D01*
X002850Y010940D02*
X002850Y010180D01*
X003783Y009662D02*
X003860Y009585D01*
X002613Y007897D02*
X002690Y007821D01*
X002690Y007667D01*
X002613Y007590D01*
X002460Y007744D02*
X002460Y007821D01*
X002537Y007897D01*
X002613Y007897D01*
X002460Y007821D02*
X002383Y007897D01*
X002306Y007897D01*
X002230Y007821D01*
X002230Y007667D01*
X002306Y007590D01*
X002306Y007437D02*
X002230Y007360D01*
X002230Y007130D01*
X002690Y007130D01*
X002537Y007130D02*
X002537Y007360D01*
X002460Y007437D01*
X002306Y007437D01*
X002537Y007283D02*
X002690Y007437D01*
X001790Y006423D02*
X001483Y006577D01*
X001483Y006270D02*
X001790Y006423D01*
X001713Y006116D02*
X001637Y006116D01*
X001560Y006039D01*
X001560Y005809D01*
X001713Y005809D01*
X001790Y005886D01*
X001790Y006039D01*
X001713Y006116D01*
X001406Y005963D02*
X001560Y005809D01*
X001406Y005963D02*
X001330Y006116D01*
X001713Y005656D02*
X001713Y005579D01*
X001790Y005579D01*
X001790Y005656D01*
X001713Y005656D01*
X001713Y005426D02*
X001637Y005426D01*
X001560Y005349D01*
X001560Y005272D01*
X001560Y005349D02*
X001483Y005426D01*
X001406Y005426D01*
X001330Y005349D01*
X001330Y005195D01*
X001406Y005119D01*
X001713Y005119D02*
X001790Y005195D01*
X001790Y005349D01*
X001713Y005426D01*
X003280Y005369D02*
X003280Y005215D01*
X003356Y005138D01*
X003433Y005138D01*
X003510Y005215D01*
X003510Y005369D01*
X003587Y005445D01*
X003663Y005445D01*
X003740Y005369D01*
X003740Y005215D01*
X003663Y005138D01*
X003587Y005138D01*
X003510Y005215D01*
X003510Y005369D02*
X003433Y005445D01*
X003356Y005445D01*
X003280Y005369D01*
X003280Y004985D02*
X003356Y004831D01*
X003510Y004678D01*
X003510Y004908D01*
X003587Y004985D01*
X003663Y004985D01*
X003740Y004908D01*
X003740Y004755D01*
X003663Y004678D01*
X003510Y004678D01*
X004280Y004755D02*
X004280Y004908D01*
X004356Y004985D01*
X004433Y004985D01*
X004510Y004908D01*
X004510Y004755D01*
X004433Y004678D01*
X004356Y004678D01*
X004280Y004755D01*
X004510Y004755D02*
X004587Y004678D01*
X004663Y004678D01*
X004740Y004755D01*
X004740Y004908D01*
X004663Y004985D01*
X004587Y004985D01*
X004510Y004908D01*
X004587Y004525D02*
X004510Y004448D01*
X004510Y004218D01*
X004663Y004218D01*
X004740Y004294D01*
X004740Y004448D01*
X004663Y004525D01*
X004587Y004525D01*
X004356Y004371D02*
X004510Y004218D01*
X004356Y004371D02*
X004280Y004525D01*
X005430Y005730D02*
X005430Y005960D01*
X005506Y006037D01*
X005813Y006037D01*
X005890Y005960D01*
X005890Y005730D01*
X005430Y005730D01*
X005530Y005779D02*
X005606Y005855D01*
X005760Y005855D01*
X005837Y005779D01*
X005837Y005548D01*
X005990Y005548D02*
X005530Y005548D01*
X005530Y005779D01*
X005580Y006059D02*
X005580Y006289D01*
X005656Y006366D01*
X005810Y006366D01*
X005887Y006289D01*
X005887Y006059D01*
X005890Y006190D02*
X005583Y006497D01*
X005506Y006497D01*
X005430Y006421D01*
X005430Y006267D01*
X005506Y006190D01*
X005580Y006059D02*
X006040Y006059D01*
X006067Y006009D02*
X006067Y006316D01*
X006040Y006366D02*
X005887Y006213D01*
X005890Y006190D02*
X005890Y006497D01*
X005913Y006469D02*
X005990Y006546D01*
X005990Y006699D01*
X005913Y006776D01*
X005837Y006776D01*
X005760Y006699D01*
X005760Y006546D01*
X005683Y006469D01*
X005606Y006469D01*
X005530Y006546D01*
X005530Y006699D01*
X005606Y006776D01*
X005580Y006750D02*
X005656Y006827D01*
X005733Y006827D01*
X006040Y006520D01*
X006040Y006827D01*
X005990Y006930D02*
X005530Y006930D01*
X005530Y007160D01*
X005606Y007236D01*
X005760Y007236D01*
X005837Y007160D01*
X005837Y006930D01*
X005580Y006750D02*
X005580Y006596D01*
X005656Y006520D01*
X005990Y005855D02*
X005837Y005702D01*
X005837Y005395D02*
X005530Y005395D01*
X005530Y005088D02*
X005837Y005088D01*
X005990Y005241D01*
X005837Y005395D01*
X005760Y004934D02*
X005760Y004628D01*
X005683Y004628D02*
X005530Y004781D01*
X005683Y004934D01*
X005990Y004934D01*
X005990Y004628D02*
X005683Y004628D01*
X007430Y005807D02*
X007430Y005960D01*
X007506Y006037D01*
X007583Y006037D01*
X007660Y005960D01*
X007737Y006037D01*
X007813Y006037D01*
X007890Y005960D01*
X007890Y005807D01*
X007813Y005730D01*
X007660Y005883D02*
X007660Y005960D01*
X007506Y005730D02*
X007430Y005807D01*
X007813Y006190D02*
X007813Y006267D01*
X007890Y006267D01*
X007890Y006190D01*
X007813Y006190D01*
X007813Y006421D02*
X007660Y006421D01*
X007660Y006651D01*
X007737Y006728D01*
X007813Y006728D01*
X007890Y006651D01*
X007890Y006497D01*
X007813Y006421D01*
X007660Y006421D02*
X007506Y006574D01*
X007430Y006728D01*
X007583Y007341D02*
X007890Y007495D01*
X007583Y007648D01*
X006067Y007697D02*
X006067Y008004D01*
X005990Y008157D02*
X005530Y008157D01*
X005530Y008387D01*
X005606Y008464D01*
X005760Y008464D01*
X005837Y008387D01*
X005837Y008157D01*
X005837Y008618D02*
X005837Y008848D01*
X005760Y008925D01*
X005606Y008925D01*
X005530Y008848D01*
X005530Y008618D01*
X005990Y008618D01*
X005837Y008771D02*
X005990Y008925D01*
X005913Y009078D02*
X005990Y009155D01*
X005990Y009308D01*
X005913Y009385D01*
X005760Y009385D01*
X005760Y009231D01*
X005913Y009078D02*
X005606Y009078D01*
X005530Y009155D01*
X005530Y009308D01*
X005606Y009385D01*
X006067Y009538D02*
X006067Y009845D01*
X005913Y009999D02*
X005990Y010076D01*
X005990Y010229D01*
X005913Y010306D01*
X005837Y010306D01*
X005760Y010229D01*
X005760Y009999D01*
X005913Y009999D01*
X005760Y009999D02*
X005606Y010152D01*
X005530Y010306D01*
X005530Y010459D02*
X005990Y010766D01*
X005530Y010766D01*
X005606Y010920D02*
X005530Y010996D01*
X005530Y011150D01*
X005606Y011227D01*
X005760Y011150D02*
X005837Y011227D01*
X005913Y011227D01*
X005990Y011150D01*
X005990Y010996D01*
X005913Y010920D01*
X005760Y010996D02*
X005760Y011150D01*
X005760Y010996D02*
X005683Y010920D01*
X005606Y010920D01*
X005530Y010459D02*
X005990Y010459D01*
X005990Y007543D02*
X005990Y007390D01*
X005990Y007467D02*
X005530Y007467D01*
X005530Y007543D02*
X005530Y007390D01*
D16*
X003160Y010038D03*
X003160Y011082D03*
D17*
X006265Y006460D03*
X007055Y006090D03*
X007055Y006830D03*
X002955Y005960D03*
X002165Y005590D03*
X002165Y006330D03*
D18*
X004161Y006372D03*
X004161Y006952D03*
X005161Y006952D03*
X005161Y006372D03*
D19*
X003160Y007140D03*
X003160Y008180D03*
D20*
X008535Y010614D02*
X008535Y010764D01*
X008535Y010689D02*
X008910Y010689D01*
X008985Y010614D01*
X008985Y010539D01*
X008910Y010464D01*
X008985Y010925D02*
X008985Y011225D01*
X008985Y011075D02*
X008535Y011075D01*
X008685Y010925D01*
D21*
X007760Y010860D03*
X007760Y009860D03*
X007760Y008860D03*
X006760Y008860D03*
X006760Y009860D03*
X006760Y010860D03*
M02*
