G75*
%MOIN*%
%OFA0B0*%
%FSLAX24Y24*%
%IPPOS*%
%LPD*%
%AMOC8*
5,1,8,0,0,1.08239X$1,22.5*
%
%ADD10C,0.0000*%
%ADD11R,0.0240X0.0870*%
%ADD12R,0.0709X0.0630*%
%ADD13R,0.0551X0.0394*%
%ADD14R,0.0591X0.0512*%
%ADD15R,0.0710X0.0630*%
%ADD16R,0.0740X0.0740*%
%ADD17OC8,0.0740*%
%ADD18R,0.0197X0.0984*%
%ADD19R,0.0787X0.0984*%
%ADD20C,0.0120*%
%ADD21C,0.0556*%
D10*
X001160Y001160D02*
X001160Y012656D01*
X009430Y012656D01*
X009430Y001160D01*
X001160Y001160D01*
X003617Y003660D02*
X003619Y003686D01*
X003625Y003712D01*
X003635Y003737D01*
X003648Y003760D01*
X003664Y003780D01*
X003684Y003798D01*
X003706Y003813D01*
X003729Y003825D01*
X003755Y003833D01*
X003781Y003837D01*
X003807Y003837D01*
X003833Y003833D01*
X003859Y003825D01*
X003883Y003813D01*
X003904Y003798D01*
X003924Y003780D01*
X003940Y003760D01*
X003953Y003737D01*
X003963Y003712D01*
X003969Y003686D01*
X003971Y003660D01*
X003969Y003634D01*
X003963Y003608D01*
X003953Y003583D01*
X003940Y003560D01*
X003924Y003540D01*
X003904Y003522D01*
X003882Y003507D01*
X003859Y003495D01*
X003833Y003487D01*
X003807Y003483D01*
X003781Y003483D01*
X003755Y003487D01*
X003729Y003495D01*
X003705Y003507D01*
X003684Y003522D01*
X003664Y003540D01*
X003648Y003560D01*
X003635Y003583D01*
X003625Y003608D01*
X003619Y003634D01*
X003617Y003660D01*
X005349Y003660D02*
X005351Y003686D01*
X005357Y003712D01*
X005367Y003737D01*
X005380Y003760D01*
X005396Y003780D01*
X005416Y003798D01*
X005438Y003813D01*
X005461Y003825D01*
X005487Y003833D01*
X005513Y003837D01*
X005539Y003837D01*
X005565Y003833D01*
X005591Y003825D01*
X005615Y003813D01*
X005636Y003798D01*
X005656Y003780D01*
X005672Y003760D01*
X005685Y003737D01*
X005695Y003712D01*
X005701Y003686D01*
X005703Y003660D01*
X005701Y003634D01*
X005695Y003608D01*
X005685Y003583D01*
X005672Y003560D01*
X005656Y003540D01*
X005636Y003522D01*
X005614Y003507D01*
X005591Y003495D01*
X005565Y003487D01*
X005539Y003483D01*
X005513Y003483D01*
X005487Y003487D01*
X005461Y003495D01*
X005437Y003507D01*
X005416Y003522D01*
X005396Y003540D01*
X005380Y003560D01*
X005367Y003583D01*
X005357Y003608D01*
X005351Y003634D01*
X005349Y003660D01*
D11*
X005410Y008330D03*
X004910Y008330D03*
X004410Y008330D03*
X003910Y008330D03*
X003910Y010980D03*
X004410Y010980D03*
X004910Y010980D03*
X005410Y010980D03*
D12*
X003160Y011111D03*
X003160Y010009D03*
D13*
X002127Y006334D03*
X002127Y005586D03*
X002993Y005960D03*
X006227Y006460D03*
X007093Y006086D03*
X007093Y006834D03*
D14*
X005160Y006995D03*
X005160Y006325D03*
X004160Y006325D03*
X004160Y006995D03*
D15*
X003160Y007100D03*
X003160Y008220D03*
D16*
X006760Y010860D03*
D17*
X006760Y009860D03*
X006760Y008860D03*
X007760Y008860D03*
X007760Y009860D03*
X007760Y010860D03*
D18*
X005290Y004644D03*
X004975Y004644D03*
X004660Y004644D03*
X004345Y004644D03*
X004030Y004644D03*
D19*
X002888Y004644D03*
X002888Y002479D03*
X006432Y002479D03*
X006432Y004644D03*
D20*
X006103Y003932D02*
X006916Y003932D01*
X007045Y004061D01*
X007045Y005228D01*
X006916Y005356D01*
X005947Y005356D01*
X005818Y005228D01*
X005818Y004229D01*
X005653Y004297D01*
X005568Y004297D01*
X005568Y004644D01*
X005293Y004644D01*
X005293Y004644D01*
X005568Y004644D01*
X005568Y005160D01*
X005556Y005206D01*
X005532Y005247D01*
X005499Y005280D01*
X005458Y005304D01*
X005412Y005316D01*
X005290Y005316D01*
X005290Y005231D01*
X005290Y005231D01*
X005290Y005316D01*
X005205Y005316D01*
X005165Y005356D01*
X004940Y005356D01*
X004940Y005544D01*
X005245Y005849D01*
X005546Y005849D01*
X005675Y005978D01*
X005675Y006180D01*
X005731Y006180D01*
X005731Y006172D01*
X005860Y006043D01*
X006594Y006043D01*
X006675Y006124D01*
X007055Y006124D01*
X007055Y006048D01*
X006637Y006048D01*
X006637Y005865D01*
X006650Y005820D01*
X006673Y005779D01*
X006707Y005745D01*
X006748Y005721D01*
X006794Y005709D01*
X007055Y005709D01*
X007055Y006048D01*
X007131Y006048D01*
X007131Y005709D01*
X007392Y005709D01*
X007438Y005721D01*
X007479Y005745D01*
X007513Y005779D01*
X007536Y005820D01*
X007549Y005865D01*
X007549Y006048D01*
X007132Y006048D01*
X007132Y006124D01*
X007549Y006124D01*
X007549Y006307D01*
X007536Y006352D01*
X007513Y006393D01*
X007479Y006427D01*
X007473Y006430D01*
X007589Y006546D01*
X007589Y007122D01*
X007460Y007251D01*
X006726Y007251D01*
X006597Y007122D01*
X006597Y006873D01*
X006594Y006877D01*
X005860Y006877D01*
X005731Y006748D01*
X005731Y006740D01*
X005675Y006740D01*
X005675Y007342D01*
X005546Y007471D01*
X005190Y007471D01*
X005190Y007744D01*
X005191Y007745D01*
X005221Y007727D01*
X005266Y007715D01*
X005410Y007715D01*
X005554Y007715D01*
X005599Y007727D01*
X005641Y007751D01*
X005674Y007784D01*
X005698Y007826D01*
X005710Y007871D01*
X005710Y008330D01*
X005710Y008714D01*
X005801Y008623D01*
X005904Y008580D01*
X006206Y008580D01*
X006516Y008270D01*
X007004Y008270D01*
X007288Y008554D01*
X007532Y008310D01*
X007720Y008310D01*
X007720Y008820D01*
X007800Y008820D01*
X007800Y008900D01*
X008310Y008900D01*
X008310Y009088D01*
X008066Y009332D01*
X008314Y009580D01*
X008416Y009580D01*
X008519Y009623D01*
X008897Y010001D01*
X008940Y010104D01*
X008940Y011316D01*
X008897Y011419D01*
X008819Y011497D01*
X008419Y011897D01*
X008316Y011940D01*
X005604Y011940D01*
X005501Y011897D01*
X005239Y011635D01*
X005199Y011635D01*
X005160Y011596D01*
X005121Y011635D01*
X004699Y011635D01*
X004660Y011596D01*
X004621Y011635D01*
X004199Y011635D01*
X004160Y011596D01*
X004121Y011635D01*
X003699Y011635D01*
X003629Y011566D01*
X003625Y011570D01*
X003584Y011594D01*
X003538Y011606D01*
X003220Y011606D01*
X003220Y011171D01*
X003100Y011171D01*
X003100Y011051D01*
X003220Y011051D01*
X003220Y010616D01*
X003489Y010616D01*
X003395Y010544D01*
X002715Y010544D01*
X002586Y010415D01*
X002586Y009603D01*
X002715Y009474D01*
X002869Y009474D01*
X002738Y009342D01*
X002662Y009159D01*
X002662Y008961D01*
X002738Y008778D01*
X002761Y008755D01*
X002714Y008755D01*
X002585Y008626D01*
X002585Y007814D01*
X002714Y007685D01*
X003606Y007685D01*
X003648Y007726D01*
X003699Y007675D01*
X004121Y007675D01*
X004130Y007684D01*
X004130Y007471D01*
X003774Y007471D01*
X003735Y007432D01*
X003735Y007506D01*
X003606Y007635D01*
X002714Y007635D01*
X002585Y007506D01*
X002585Y006694D01*
X002714Y006565D01*
X003075Y006565D01*
X003151Y006377D01*
X002626Y006377D01*
X002545Y006296D01*
X002165Y006296D01*
X002165Y006372D01*
X002583Y006372D01*
X002583Y006555D01*
X002570Y006600D01*
X002547Y006641D01*
X002513Y006675D01*
X002472Y006699D01*
X002426Y006711D01*
X002165Y006711D01*
X002165Y006372D01*
X002089Y006372D01*
X002088Y006372D02*
X002088Y006296D01*
X001671Y006296D01*
X001671Y006113D01*
X001684Y006068D01*
X001707Y006027D01*
X001741Y005993D01*
X001747Y005990D01*
X001631Y005874D01*
X001631Y005298D01*
X001760Y005169D01*
X002275Y005169D01*
X002275Y004061D01*
X002404Y003932D01*
X003217Y003932D01*
X003157Y003787D01*
X003157Y003533D01*
X003254Y003299D01*
X003362Y003191D01*
X002404Y003191D01*
X002275Y003062D01*
X002275Y001896D01*
X002404Y001767D01*
X003373Y001767D01*
X003502Y001896D01*
X003502Y003062D01*
X003452Y003112D01*
X003667Y003023D01*
X003921Y003023D01*
X004155Y003120D01*
X004334Y003299D01*
X004431Y003533D01*
X004431Y003787D01*
X004371Y003932D01*
X004949Y003932D01*
X004889Y003787D01*
X004889Y003533D01*
X004986Y003299D01*
X005165Y003120D01*
X005399Y003023D01*
X005653Y003023D01*
X005868Y003112D01*
X005818Y003062D01*
X005818Y001896D01*
X005947Y001767D01*
X006916Y001767D01*
X007045Y001896D01*
X007045Y003062D01*
X006916Y003191D01*
X005958Y003191D01*
X006066Y003299D01*
X006163Y003533D01*
X006163Y003787D01*
X006103Y003932D01*
X006109Y003918D02*
X008970Y003918D01*
X008970Y004036D02*
X007020Y004036D01*
X007045Y004155D02*
X008970Y004155D01*
X008970Y004273D02*
X007045Y004273D01*
X007045Y004392D02*
X008970Y004392D01*
X008970Y004510D02*
X007045Y004510D01*
X007045Y004629D02*
X008970Y004629D01*
X008970Y004747D02*
X007045Y004747D01*
X007045Y004866D02*
X008970Y004866D01*
X008970Y004984D02*
X007045Y004984D01*
X007045Y005103D02*
X008970Y005103D01*
X008970Y005221D02*
X007045Y005221D01*
X006933Y005340D02*
X008970Y005340D01*
X008970Y005458D02*
X004940Y005458D01*
X004973Y005577D02*
X008970Y005577D01*
X008970Y005695D02*
X005091Y005695D01*
X005210Y005814D02*
X006653Y005814D01*
X006637Y005932D02*
X005629Y005932D01*
X005675Y006051D02*
X005853Y006051D01*
X005734Y006169D02*
X005675Y006169D01*
X005525Y006460D02*
X005160Y006325D01*
X005160Y006160D01*
X004660Y005660D01*
X004660Y004644D01*
X004345Y004644D02*
X004345Y006140D01*
X004160Y006325D01*
X004093Y006258D01*
X003660Y006258D01*
X003362Y005960D01*
X002993Y005960D01*
X003140Y006406D02*
X002583Y006406D01*
X002583Y006525D02*
X003092Y006525D01*
X003502Y006258D02*
X003160Y007100D01*
X003631Y007710D02*
X003664Y007710D01*
X003650Y007591D02*
X004130Y007591D01*
X004130Y007473D02*
X003735Y007473D01*
X004160Y006995D02*
X004410Y007245D01*
X004410Y008330D01*
X003910Y008330D02*
X003860Y008380D01*
X003860Y008760D01*
X004260Y009160D01*
X005660Y009160D01*
X005960Y008860D01*
X006760Y008860D01*
X007155Y008421D02*
X007422Y008421D01*
X007303Y008539D02*
X007273Y008539D01*
X007036Y008302D02*
X008970Y008302D01*
X008970Y008184D02*
X005710Y008184D01*
X005710Y008302D02*
X006484Y008302D01*
X006365Y008421D02*
X005710Y008421D01*
X005710Y008330D02*
X005410Y008330D01*
X005410Y008330D01*
X005710Y008330D01*
X005710Y008539D02*
X006247Y008539D01*
X005766Y008658D02*
X005710Y008658D01*
X005410Y008330D02*
X005410Y007715D01*
X005410Y008330D01*
X005410Y008330D01*
X005410Y008302D02*
X005410Y008302D01*
X005410Y008184D02*
X005410Y008184D01*
X005410Y008065D02*
X005410Y008065D01*
X005410Y007947D02*
X005410Y007947D01*
X005410Y007828D02*
X005410Y007828D01*
X005190Y007710D02*
X008970Y007710D01*
X008970Y007828D02*
X005698Y007828D01*
X005710Y007947D02*
X008970Y007947D01*
X008970Y008065D02*
X005710Y008065D01*
X005663Y007354D02*
X008970Y007354D01*
X008970Y007236D02*
X007475Y007236D01*
X007589Y007117D02*
X008970Y007117D01*
X008970Y006999D02*
X007589Y006999D01*
X007589Y006880D02*
X008970Y006880D01*
X008970Y006762D02*
X007589Y006762D01*
X007589Y006643D02*
X008970Y006643D01*
X008970Y006525D02*
X007567Y006525D01*
X007500Y006406D02*
X008970Y006406D01*
X008970Y006288D02*
X007549Y006288D01*
X007549Y006169D02*
X008970Y006169D01*
X008970Y006051D02*
X007132Y006051D01*
X007055Y006051D02*
X006601Y006051D01*
X007055Y005932D02*
X007131Y005932D01*
X007131Y005814D02*
X007055Y005814D01*
X007533Y005814D02*
X008970Y005814D01*
X008970Y005932D02*
X007549Y005932D01*
X006597Y006880D02*
X005675Y006880D01*
X005675Y006762D02*
X005745Y006762D01*
X005675Y006999D02*
X006597Y006999D01*
X006597Y007117D02*
X005675Y007117D01*
X005675Y007236D02*
X006711Y007236D01*
X006227Y006460D02*
X005525Y006460D01*
X005160Y006995D02*
X004910Y007245D01*
X004910Y008330D01*
X005190Y007591D02*
X008970Y007591D01*
X008970Y007473D02*
X005190Y007473D01*
X004093Y006258D02*
X004093Y006227D01*
X003660Y006258D02*
X003502Y006258D01*
X003560Y005560D02*
X004030Y005090D01*
X004030Y004644D01*
X004377Y003918D02*
X004943Y003918D01*
X004894Y003799D02*
X004426Y003799D01*
X004431Y003681D02*
X004889Y003681D01*
X004889Y003562D02*
X004431Y003562D01*
X004394Y003444D02*
X004926Y003444D01*
X004975Y003325D02*
X004345Y003325D01*
X004241Y003207D02*
X005079Y003207D01*
X005242Y003088D02*
X004078Y003088D01*
X003510Y003088D02*
X003476Y003088D01*
X003502Y002970D02*
X005818Y002970D01*
X005810Y003088D02*
X005844Y003088D01*
X005974Y003207D02*
X008970Y003207D01*
X008970Y003325D02*
X006077Y003325D01*
X006126Y003444D02*
X008970Y003444D01*
X008970Y003562D02*
X006163Y003562D01*
X006163Y003681D02*
X008970Y003681D01*
X008970Y003799D02*
X006158Y003799D01*
X005818Y004273D02*
X005711Y004273D01*
X005818Y004392D02*
X005568Y004392D01*
X005568Y004510D02*
X005818Y004510D01*
X005818Y004629D02*
X005568Y004629D01*
X005568Y004747D02*
X005818Y004747D01*
X005818Y004866D02*
X005568Y004866D01*
X005568Y004984D02*
X005818Y004984D01*
X005818Y005103D02*
X005568Y005103D01*
X005547Y005221D02*
X005818Y005221D01*
X005930Y005340D02*
X005181Y005340D01*
X005818Y002851D02*
X003502Y002851D01*
X003502Y002733D02*
X005818Y002733D01*
X005818Y002614D02*
X003502Y002614D01*
X003502Y002496D02*
X005818Y002496D01*
X005818Y002377D02*
X003502Y002377D01*
X003502Y002259D02*
X005818Y002259D01*
X005818Y002140D02*
X003502Y002140D01*
X003502Y002022D02*
X005818Y002022D01*
X005818Y001903D02*
X003502Y001903D01*
X003391Y001785D02*
X005929Y001785D01*
X006934Y001785D02*
X008970Y001785D01*
X008970Y001903D02*
X007045Y001903D01*
X007045Y002022D02*
X008970Y002022D01*
X008970Y002140D02*
X007045Y002140D01*
X007045Y002259D02*
X008970Y002259D01*
X008970Y002377D02*
X007045Y002377D01*
X007045Y002496D02*
X008970Y002496D01*
X008970Y002614D02*
X007045Y002614D01*
X007045Y002733D02*
X008970Y002733D01*
X008970Y002851D02*
X007045Y002851D01*
X007045Y002970D02*
X008970Y002970D01*
X008970Y003088D02*
X007019Y003088D01*
X008970Y001666D02*
X001620Y001666D01*
X001620Y001620D02*
X001620Y012196D01*
X008970Y012196D01*
X008970Y001620D01*
X001620Y001620D01*
X001620Y001785D02*
X002386Y001785D01*
X002275Y001903D02*
X001620Y001903D01*
X001620Y002022D02*
X002275Y002022D01*
X002275Y002140D02*
X001620Y002140D01*
X001620Y002259D02*
X002275Y002259D01*
X002275Y002377D02*
X001620Y002377D01*
X001620Y002496D02*
X002275Y002496D01*
X002275Y002614D02*
X001620Y002614D01*
X001620Y002733D02*
X002275Y002733D01*
X002275Y002851D02*
X001620Y002851D01*
X001620Y002970D02*
X002275Y002970D01*
X002301Y003088D02*
X001620Y003088D01*
X001620Y003207D02*
X003346Y003207D01*
X003243Y003325D02*
X001620Y003325D01*
X001620Y003444D02*
X003194Y003444D01*
X003157Y003562D02*
X001620Y003562D01*
X001620Y003681D02*
X003157Y003681D01*
X003162Y003799D02*
X001620Y003799D01*
X001620Y003918D02*
X003211Y003918D01*
X002300Y004036D02*
X001620Y004036D01*
X001620Y004155D02*
X002275Y004155D01*
X002275Y004273D02*
X001620Y004273D01*
X001620Y004392D02*
X002275Y004392D01*
X002275Y004510D02*
X001620Y004510D01*
X001620Y004629D02*
X002275Y004629D01*
X002275Y004747D02*
X001620Y004747D01*
X001620Y004866D02*
X002275Y004866D01*
X002275Y004984D02*
X001620Y004984D01*
X001620Y005103D02*
X002275Y005103D01*
X001708Y005221D02*
X001620Y005221D01*
X001620Y005340D02*
X001631Y005340D01*
X001620Y005458D02*
X001631Y005458D01*
X001620Y005577D02*
X001631Y005577D01*
X001620Y005695D02*
X001631Y005695D01*
X001620Y005814D02*
X001631Y005814D01*
X001620Y005932D02*
X001689Y005932D01*
X001694Y006051D02*
X001620Y006051D01*
X001620Y006169D02*
X001671Y006169D01*
X001671Y006288D02*
X001620Y006288D01*
X001671Y006372D02*
X002088Y006372D01*
X002089Y006372D02*
X002089Y006711D01*
X001828Y006711D01*
X001782Y006699D01*
X001741Y006675D01*
X001707Y006641D01*
X001684Y006600D01*
X001671Y006555D01*
X001671Y006372D01*
X001671Y006406D02*
X001620Y006406D01*
X001620Y006525D02*
X001671Y006525D01*
X001709Y006643D02*
X001620Y006643D01*
X001620Y006762D02*
X002585Y006762D01*
X002585Y006880D02*
X001620Y006880D01*
X001620Y006999D02*
X002585Y006999D01*
X002585Y007117D02*
X001620Y007117D01*
X001620Y007236D02*
X002585Y007236D01*
X002585Y007354D02*
X001620Y007354D01*
X001620Y007473D02*
X002585Y007473D01*
X002670Y007591D02*
X001620Y007591D01*
X001620Y007710D02*
X002689Y007710D01*
X002585Y007828D02*
X001620Y007828D01*
X001620Y007947D02*
X002585Y007947D01*
X002585Y008065D02*
X001620Y008065D01*
X001620Y008184D02*
X002585Y008184D01*
X002585Y008302D02*
X001620Y008302D01*
X001620Y008421D02*
X002585Y008421D01*
X002585Y008539D02*
X001620Y008539D01*
X001620Y008658D02*
X002617Y008658D01*
X002740Y008776D02*
X001620Y008776D01*
X001620Y008895D02*
X002689Y008895D01*
X002662Y009013D02*
X001620Y009013D01*
X001620Y009132D02*
X002662Y009132D01*
X002700Y009250D02*
X001620Y009250D01*
X001620Y009369D02*
X002764Y009369D01*
X002701Y009487D02*
X001620Y009487D01*
X001620Y009606D02*
X002586Y009606D01*
X002586Y009724D02*
X001620Y009724D01*
X001620Y009843D02*
X002586Y009843D01*
X002586Y009961D02*
X001620Y009961D01*
X001620Y010080D02*
X002586Y010080D01*
X002586Y010198D02*
X001620Y010198D01*
X001620Y010317D02*
X002586Y010317D01*
X002606Y010435D02*
X001620Y010435D01*
X001620Y010554D02*
X003408Y010554D01*
X003220Y010672D02*
X003100Y010672D01*
X003100Y010616D02*
X003100Y011051D01*
X002626Y011051D01*
X002626Y010773D01*
X002638Y010727D01*
X002662Y010686D01*
X002695Y010652D01*
X002736Y010628D01*
X002782Y010616D01*
X003100Y010616D01*
X003100Y010791D02*
X003220Y010791D01*
X003220Y010909D02*
X003100Y010909D01*
X003100Y011028D02*
X003220Y011028D01*
X003100Y011146D02*
X001620Y011146D01*
X001620Y011028D02*
X002626Y011028D01*
X002626Y010909D02*
X001620Y010909D01*
X001620Y010791D02*
X002626Y010791D01*
X002675Y010672D02*
X001620Y010672D01*
X001620Y011265D02*
X002626Y011265D01*
X002626Y011171D02*
X003100Y011171D01*
X003100Y011606D01*
X002782Y011606D01*
X002736Y011594D01*
X002695Y011570D01*
X002662Y011537D01*
X002638Y011496D01*
X002626Y011450D01*
X002626Y011171D01*
X002626Y011383D02*
X001620Y011383D01*
X001620Y011502D02*
X002641Y011502D01*
X003100Y011502D02*
X003220Y011502D01*
X003220Y011383D02*
X003100Y011383D01*
X003100Y011265D02*
X003220Y011265D01*
X003684Y011620D02*
X001620Y011620D01*
X001620Y011739D02*
X005343Y011739D01*
X005461Y011857D02*
X001620Y011857D01*
X001620Y011976D02*
X008970Y011976D01*
X008970Y012094D02*
X001620Y012094D01*
X003160Y010009D02*
X003809Y010509D01*
X003860Y010560D01*
X003860Y010930D01*
X003910Y010980D01*
X004410Y010980D02*
X004410Y010210D01*
X004760Y009860D01*
X006760Y009860D01*
X006760Y010860D02*
X006360Y010860D01*
X005660Y010160D01*
X005160Y010160D01*
X004910Y010410D01*
X004910Y010980D01*
X005360Y011030D02*
X005410Y010980D01*
X005360Y011030D02*
X005360Y011360D01*
X005660Y011660D01*
X008260Y011660D01*
X008660Y011260D01*
X008660Y010160D01*
X008360Y009860D01*
X007760Y009860D01*
X008103Y009369D02*
X008970Y009369D01*
X008970Y009487D02*
X008221Y009487D01*
X008148Y009250D02*
X008970Y009250D01*
X008970Y009132D02*
X008266Y009132D01*
X008310Y009013D02*
X008970Y009013D01*
X008970Y008895D02*
X007800Y008895D01*
X007800Y008820D02*
X008310Y008820D01*
X008310Y008632D01*
X007988Y008310D01*
X007800Y008310D01*
X007800Y008820D01*
X007800Y008776D02*
X007720Y008776D01*
X007720Y008658D02*
X007800Y008658D01*
X007800Y008539D02*
X007720Y008539D01*
X007720Y008421D02*
X007800Y008421D01*
X008098Y008421D02*
X008970Y008421D01*
X008970Y008539D02*
X008217Y008539D01*
X008310Y008658D02*
X008970Y008658D01*
X008970Y008776D02*
X008310Y008776D01*
X008477Y009606D02*
X008970Y009606D01*
X008970Y009724D02*
X008620Y009724D01*
X008739Y009843D02*
X008970Y009843D01*
X008970Y009961D02*
X008857Y009961D01*
X008930Y010080D02*
X008970Y010080D01*
X008970Y010198D02*
X008940Y010198D01*
X008940Y010317D02*
X008970Y010317D01*
X008970Y010435D02*
X008940Y010435D01*
X008940Y010554D02*
X008970Y010554D01*
X008970Y010672D02*
X008940Y010672D01*
X008940Y010791D02*
X008970Y010791D01*
X008970Y010909D02*
X008940Y010909D01*
X008940Y011028D02*
X008970Y011028D01*
X008970Y011146D02*
X008940Y011146D01*
X008940Y011265D02*
X008970Y011265D01*
X008970Y011383D02*
X008912Y011383D01*
X008970Y011502D02*
X008814Y011502D01*
X008819Y011497D02*
X008819Y011497D01*
X008696Y011620D02*
X008970Y011620D01*
X008970Y011739D02*
X008577Y011739D01*
X008459Y011857D02*
X008970Y011857D01*
X005184Y011620D02*
X005136Y011620D01*
X004684Y011620D02*
X004636Y011620D01*
X004184Y011620D02*
X004136Y011620D01*
X003160Y010009D02*
X003160Y009060D01*
X003160Y008220D01*
X002636Y006643D02*
X002545Y006643D01*
X002165Y006643D02*
X002089Y006643D01*
X002089Y006525D02*
X002165Y006525D01*
X002165Y006406D02*
X002089Y006406D01*
X002127Y006334D02*
X002160Y006160D01*
X002265Y006296D01*
X002165Y006296D02*
X002165Y006003D01*
X002089Y006003D01*
X002089Y006296D01*
X002165Y006296D01*
X002165Y006288D02*
X002089Y006288D01*
X002089Y006169D02*
X002165Y006169D01*
X002165Y006051D02*
X002089Y006051D01*
D21*
X003560Y005560D03*
X003160Y009060D03*
M02*
