G75*
%MOIN*%
%OFA0B0*%
%FSLAX24Y24*%
%IPPOS*%
%LPD*%
%AMOC8*
5,1,8,0,0,1.08239X$1,22.5*
%
%ADD10R,0.0320X0.0950*%
%ADD11R,0.0789X0.0710*%
%ADD12R,0.0631X0.0474*%
%ADD13R,0.0671X0.0592*%
%ADD14R,0.0790X0.0710*%
%ADD15R,0.0277X0.1064*%
%ADD16R,0.0867X0.1064*%
%ADD17C,0.0434*%
%ADD18R,0.1080X0.0580*%
%ADD19C,0.0290*%
%ADD20C,0.0636*%
D10*
X003910Y008330D03*
X004410Y008330D03*
X004910Y008330D03*
X005410Y008330D03*
X005410Y010980D03*
X004910Y010980D03*
X004410Y010980D03*
X003910Y010980D03*
D11*
X003160Y011111D03*
X003160Y010009D03*
D12*
X002127Y006334D03*
X002127Y005586D03*
X002993Y005960D03*
X005927Y006360D03*
X006793Y005986D03*
X006793Y006734D03*
D13*
X005160Y006995D03*
X005160Y006325D03*
X004160Y006325D03*
X004160Y006995D03*
D14*
X003160Y007100D03*
X003160Y008220D03*
D15*
X004030Y004644D03*
X004345Y004644D03*
X004660Y004644D03*
X004975Y004644D03*
X005290Y004644D03*
D16*
X002888Y002479D03*
X002888Y004644D03*
X006432Y004644D03*
X006432Y002479D03*
D17*
X005526Y003660D03*
X003794Y003660D03*
D18*
X008160Y006660D03*
D19*
X007765Y007805D02*
X008555Y007805D01*
X008555Y007515D01*
X007765Y007515D01*
X007765Y007805D01*
X007765Y007804D02*
X008555Y007804D01*
X008555Y008805D02*
X007765Y008805D01*
X008555Y008805D02*
X008555Y008515D01*
X007765Y008515D01*
X007765Y008805D01*
X007765Y008804D02*
X008555Y008804D01*
X008555Y009805D02*
X007765Y009805D01*
X008555Y009805D02*
X008555Y009515D01*
X007765Y009515D01*
X007765Y009805D01*
X007765Y009804D02*
X008555Y009804D01*
X008555Y010805D02*
X007765Y010805D01*
X008555Y010805D02*
X008555Y010515D01*
X007765Y010515D01*
X007765Y010805D01*
X007765Y010804D02*
X008555Y010804D01*
X008555Y011805D02*
X007765Y011805D01*
X008555Y011805D02*
X008555Y011515D01*
X007765Y011515D01*
X007765Y011805D01*
X007765Y011804D02*
X008555Y011804D01*
D20*
X003660Y005560D03*
X003160Y009160D03*
M02*
