G75*
%MOIN*%
%OFA0B0*%
%FSLAX24Y24*%
%IPPOS*%
%LPD*%
%AMOC8*
5,1,8,0,0,1.08239X$1,22.5*
%
%ADD10C,0.0000*%
%ADD11R,0.0240X0.0870*%
%ADD12R,0.0709X0.0630*%
%ADD13R,0.0551X0.0394*%
%ADD14R,0.0591X0.0512*%
%ADD15R,0.0710X0.0630*%
%ADD16R,0.0197X0.0984*%
%ADD17R,0.0787X0.0984*%
%ADD18R,0.1000X0.0500*%
%ADD19C,0.0250*%
%ADD20C,0.0120*%
%ADD21C,0.0556*%
D10*
X001160Y001160D02*
X001160Y012656D01*
X008930Y012656D01*
X008930Y001160D01*
X001160Y001160D01*
X003617Y003660D02*
X003619Y003686D01*
X003625Y003712D01*
X003635Y003737D01*
X003648Y003760D01*
X003664Y003780D01*
X003684Y003798D01*
X003706Y003813D01*
X003729Y003825D01*
X003755Y003833D01*
X003781Y003837D01*
X003807Y003837D01*
X003833Y003833D01*
X003859Y003825D01*
X003883Y003813D01*
X003904Y003798D01*
X003924Y003780D01*
X003940Y003760D01*
X003953Y003737D01*
X003963Y003712D01*
X003969Y003686D01*
X003971Y003660D01*
X003969Y003634D01*
X003963Y003608D01*
X003953Y003583D01*
X003940Y003560D01*
X003924Y003540D01*
X003904Y003522D01*
X003882Y003507D01*
X003859Y003495D01*
X003833Y003487D01*
X003807Y003483D01*
X003781Y003483D01*
X003755Y003487D01*
X003729Y003495D01*
X003705Y003507D01*
X003684Y003522D01*
X003664Y003540D01*
X003648Y003560D01*
X003635Y003583D01*
X003625Y003608D01*
X003619Y003634D01*
X003617Y003660D01*
X005349Y003660D02*
X005351Y003686D01*
X005357Y003712D01*
X005367Y003737D01*
X005380Y003760D01*
X005396Y003780D01*
X005416Y003798D01*
X005438Y003813D01*
X005461Y003825D01*
X005487Y003833D01*
X005513Y003837D01*
X005539Y003837D01*
X005565Y003833D01*
X005591Y003825D01*
X005615Y003813D01*
X005636Y003798D01*
X005656Y003780D01*
X005672Y003760D01*
X005685Y003737D01*
X005695Y003712D01*
X005701Y003686D01*
X005703Y003660D01*
X005701Y003634D01*
X005695Y003608D01*
X005685Y003583D01*
X005672Y003560D01*
X005656Y003540D01*
X005636Y003522D01*
X005614Y003507D01*
X005591Y003495D01*
X005565Y003487D01*
X005539Y003483D01*
X005513Y003483D01*
X005487Y003487D01*
X005461Y003495D01*
X005437Y003507D01*
X005416Y003522D01*
X005396Y003540D01*
X005380Y003560D01*
X005367Y003583D01*
X005357Y003608D01*
X005351Y003634D01*
X005349Y003660D01*
D11*
X005410Y008330D03*
X004910Y008330D03*
X004410Y008330D03*
X003910Y008330D03*
X003910Y010980D03*
X004410Y010980D03*
X004910Y010980D03*
X005410Y010980D03*
D12*
X003160Y011111D03*
X003160Y010009D03*
D13*
X002127Y006334D03*
X002127Y005586D03*
X002993Y005960D03*
X005927Y006360D03*
X006793Y005986D03*
X006793Y006734D03*
D14*
X005160Y006995D03*
X005160Y006325D03*
X004160Y006325D03*
X004160Y006995D03*
D15*
X003160Y007100D03*
X003160Y008220D03*
D16*
X004030Y004644D03*
X004345Y004644D03*
X004660Y004644D03*
X004975Y004644D03*
X005290Y004644D03*
D17*
X006432Y004644D03*
X006432Y002479D03*
X002888Y002479D03*
X002888Y004644D03*
D18*
X008160Y006660D03*
D19*
X007785Y007785D02*
X008535Y007785D01*
X008535Y007535D01*
X007785Y007535D01*
X007785Y007785D01*
X007785Y007784D02*
X008535Y007784D01*
X008535Y008785D02*
X007785Y008785D01*
X008535Y008785D02*
X008535Y008535D01*
X007785Y008535D01*
X007785Y008785D01*
X007785Y008784D02*
X008535Y008784D01*
X008535Y009785D02*
X007785Y009785D01*
X008535Y009785D02*
X008535Y009535D01*
X007785Y009535D01*
X007785Y009785D01*
X007785Y009784D02*
X008535Y009784D01*
X008535Y010785D02*
X007785Y010785D01*
X008535Y010785D02*
X008535Y010535D01*
X007785Y010535D01*
X007785Y010785D01*
X007785Y010784D02*
X008535Y010784D01*
X008535Y011785D02*
X007785Y011785D01*
X008535Y011785D02*
X008535Y011535D01*
X007785Y011535D01*
X007785Y011785D01*
X007785Y011784D02*
X008535Y011784D01*
D20*
X008470Y012130D02*
X007716Y012130D01*
X007590Y012077D01*
X007493Y011980D01*
X007476Y011940D01*
X005704Y011940D01*
X005601Y011897D01*
X005339Y011635D01*
X005199Y011635D01*
X005160Y011596D01*
X005121Y011635D01*
X004699Y011635D01*
X004660Y011596D01*
X004621Y011635D01*
X004199Y011635D01*
X004160Y011596D01*
X004121Y011635D01*
X003699Y011635D01*
X003629Y011566D01*
X003625Y011570D01*
X003584Y011594D01*
X003538Y011606D01*
X003220Y011606D01*
X003220Y011171D01*
X003100Y011171D01*
X003100Y011051D01*
X003220Y011051D01*
X003220Y010616D01*
X003538Y010616D01*
X003570Y010625D01*
X003570Y010544D01*
X002715Y010544D01*
X002586Y010415D01*
X002586Y009603D01*
X002715Y009474D01*
X002769Y009474D01*
X002738Y009442D01*
X002662Y009259D01*
X002662Y009061D01*
X002738Y008878D01*
X002861Y008755D01*
X002714Y008755D01*
X002585Y008626D01*
X002585Y007814D01*
X002714Y007685D01*
X003606Y007685D01*
X003648Y007726D01*
X003699Y007675D01*
X004121Y007675D01*
X004130Y007684D01*
X004130Y007471D01*
X003774Y007471D01*
X003735Y007432D01*
X003735Y007506D01*
X003606Y007635D01*
X002714Y007635D01*
X002585Y007506D01*
X002585Y006694D01*
X002714Y006565D01*
X003075Y006565D01*
X003151Y006377D01*
X002626Y006377D01*
X002545Y006296D01*
X002165Y006296D01*
X002165Y006003D01*
X002089Y006003D01*
X002089Y006296D01*
X002165Y006296D01*
X002165Y006372D01*
X002583Y006372D01*
X002583Y006555D01*
X002570Y006600D01*
X002547Y006641D01*
X002513Y006675D01*
X002472Y006699D01*
X002426Y006711D01*
X002165Y006711D01*
X002165Y006372D01*
X002089Y006372D01*
X002088Y006372D02*
X002088Y006296D01*
X001671Y006296D01*
X001671Y006113D01*
X001684Y006068D01*
X001707Y006027D01*
X001741Y005993D01*
X001747Y005990D01*
X001631Y005874D01*
X001631Y005298D01*
X001760Y005169D01*
X002275Y005169D01*
X002275Y004061D01*
X002404Y003932D01*
X003217Y003932D01*
X003157Y003787D01*
X003157Y003533D01*
X003254Y003299D01*
X003362Y003191D01*
X002404Y003191D01*
X002275Y003062D01*
X002275Y001896D01*
X002404Y001767D01*
X003373Y001767D01*
X003502Y001896D01*
X003502Y003062D01*
X003452Y003112D01*
X003667Y003023D01*
X003921Y003023D01*
X004155Y003120D01*
X004334Y003299D01*
X004431Y003533D01*
X004431Y003787D01*
X004371Y003932D01*
X004949Y003932D01*
X004889Y003787D01*
X004889Y003533D01*
X004986Y003299D01*
X005165Y003120D01*
X005399Y003023D01*
X005653Y003023D01*
X005868Y003112D01*
X005818Y003062D01*
X005818Y001896D01*
X005947Y001767D01*
X006916Y001767D01*
X007045Y001896D01*
X007045Y003062D01*
X006916Y003191D01*
X005958Y003191D01*
X006066Y003299D01*
X006163Y003533D01*
X006163Y003787D01*
X006103Y003932D01*
X006916Y003932D01*
X007045Y004061D01*
X007045Y005228D01*
X006916Y005356D01*
X005947Y005356D01*
X005818Y005228D01*
X005818Y004229D01*
X005653Y004297D01*
X005568Y004297D01*
X005568Y004644D01*
X005293Y004644D01*
X005293Y004644D01*
X005568Y004644D01*
X005568Y005160D01*
X005556Y005206D01*
X005532Y005247D01*
X005499Y005280D01*
X005458Y005304D01*
X005412Y005316D01*
X005290Y005316D01*
X005290Y005231D01*
X005290Y005231D01*
X005290Y005316D01*
X005205Y005316D01*
X005165Y005356D01*
X004940Y005356D01*
X004940Y005544D01*
X005245Y005849D01*
X005546Y005849D01*
X005640Y005943D01*
X006294Y005943D01*
X006375Y006024D01*
X006755Y006024D01*
X006755Y005948D01*
X006337Y005948D01*
X006337Y005765D01*
X006350Y005720D01*
X006373Y005679D01*
X006407Y005645D01*
X006448Y005621D01*
X006494Y005609D01*
X006755Y005609D01*
X006755Y005948D01*
X006831Y005948D01*
X006831Y005609D01*
X007092Y005609D01*
X007138Y005621D01*
X007179Y005645D01*
X007213Y005679D01*
X007236Y005720D01*
X007249Y005765D01*
X007249Y005948D01*
X006832Y005948D01*
X006832Y006024D01*
X007249Y006024D01*
X007249Y006207D01*
X007236Y006252D01*
X007213Y006293D01*
X007179Y006327D01*
X007173Y006330D01*
X007289Y006446D01*
X007289Y007022D01*
X007160Y007151D01*
X006426Y007151D01*
X006297Y007022D01*
X006297Y006773D01*
X006294Y006777D01*
X005675Y006777D01*
X005675Y007342D01*
X005546Y007471D01*
X005190Y007471D01*
X005190Y007744D01*
X005191Y007745D01*
X005221Y007727D01*
X005266Y007715D01*
X005410Y007715D01*
X005554Y007715D01*
X005599Y007727D01*
X005641Y007751D01*
X005674Y007784D01*
X005698Y007826D01*
X005710Y007871D01*
X005710Y008330D01*
X005710Y008630D01*
X006965Y007459D01*
X007001Y007423D01*
X007006Y007421D01*
X007010Y007417D01*
X007057Y007399D01*
X007104Y007380D01*
X007109Y007380D01*
X007114Y007378D01*
X007165Y007380D01*
X007476Y007380D01*
X007493Y007340D01*
X007590Y007243D01*
X007716Y007190D01*
X008470Y007190D01*
X008470Y007090D01*
X008220Y007090D01*
X008220Y006720D01*
X008100Y006720D01*
X008100Y007090D01*
X007636Y007090D01*
X007591Y007078D01*
X007549Y007054D01*
X007516Y007021D01*
X007492Y006979D01*
X007480Y006934D01*
X007480Y006720D01*
X008100Y006720D01*
X008100Y006600D01*
X008220Y006600D01*
X008220Y006230D01*
X008470Y006230D01*
X008470Y001620D01*
X001620Y001620D01*
X001620Y012196D01*
X008470Y012196D01*
X008470Y012130D01*
X008160Y011660D02*
X005760Y011660D01*
X005460Y011360D01*
X005460Y011030D01*
X005410Y010980D01*
X004960Y010460D02*
X005060Y010360D01*
X005760Y010360D01*
X006060Y010660D01*
X008160Y010660D01*
X007960Y009860D02*
X004760Y009860D01*
X004360Y010260D01*
X004360Y010930D01*
X004410Y010980D01*
X003960Y010930D02*
X003910Y010980D01*
X003960Y010930D02*
X003960Y010160D01*
X003809Y010009D01*
X003160Y010009D01*
X003160Y009160D01*
X003160Y008220D01*
X003160Y008160D01*
X003631Y007710D02*
X003664Y007710D01*
X003650Y007591D02*
X004130Y007591D01*
X004130Y007473D02*
X003735Y007473D01*
X004160Y006995D02*
X004410Y007245D01*
X004410Y008330D01*
X003910Y008330D02*
X003910Y008910D01*
X004160Y009060D01*
X005660Y009060D01*
X007160Y007660D01*
X008160Y007660D01*
X008470Y007117D02*
X007194Y007117D01*
X007289Y006999D02*
X007503Y006999D01*
X007480Y006880D02*
X007289Y006880D01*
X007289Y006762D02*
X007480Y006762D01*
X007480Y006600D02*
X007480Y006386D01*
X007492Y006341D01*
X007516Y006299D01*
X007549Y006266D01*
X007591Y006242D01*
X007636Y006230D01*
X008100Y006230D01*
X008100Y006600D01*
X007480Y006600D01*
X007480Y006525D02*
X007289Y006525D01*
X007289Y006643D02*
X008100Y006643D01*
X008100Y006525D02*
X008220Y006525D01*
X008220Y006406D02*
X008100Y006406D01*
X008100Y006288D02*
X008220Y006288D01*
X008470Y006169D02*
X007249Y006169D01*
X007249Y006051D02*
X008470Y006051D01*
X008470Y005932D02*
X007249Y005932D01*
X007249Y005814D02*
X008470Y005814D01*
X008470Y005695D02*
X007222Y005695D01*
X006933Y005340D02*
X008470Y005340D01*
X008470Y005458D02*
X004940Y005458D01*
X004973Y005577D02*
X008470Y005577D01*
X008470Y005221D02*
X007045Y005221D01*
X007045Y005103D02*
X008470Y005103D01*
X008470Y004984D02*
X007045Y004984D01*
X007045Y004866D02*
X008470Y004866D01*
X008470Y004747D02*
X007045Y004747D01*
X007045Y004629D02*
X008470Y004629D01*
X008470Y004510D02*
X007045Y004510D01*
X007045Y004392D02*
X008470Y004392D01*
X008470Y004273D02*
X007045Y004273D01*
X007045Y004155D02*
X008470Y004155D01*
X008470Y004036D02*
X007020Y004036D01*
X007019Y003088D02*
X008470Y003088D01*
X008470Y002970D02*
X007045Y002970D01*
X007045Y002851D02*
X008470Y002851D01*
X008470Y002733D02*
X007045Y002733D01*
X007045Y002614D02*
X008470Y002614D01*
X008470Y002496D02*
X007045Y002496D01*
X007045Y002377D02*
X008470Y002377D01*
X008470Y002259D02*
X007045Y002259D01*
X007045Y002140D02*
X008470Y002140D01*
X008470Y002022D02*
X007045Y002022D01*
X007045Y001903D02*
X008470Y001903D01*
X008470Y001785D02*
X006934Y001785D01*
X005929Y001785D02*
X003391Y001785D01*
X003502Y001903D02*
X005818Y001903D01*
X005818Y002022D02*
X003502Y002022D01*
X003502Y002140D02*
X005818Y002140D01*
X005818Y002259D02*
X003502Y002259D01*
X003502Y002377D02*
X005818Y002377D01*
X005818Y002496D02*
X003502Y002496D01*
X003502Y002614D02*
X005818Y002614D01*
X005818Y002733D02*
X003502Y002733D01*
X003502Y002851D02*
X005818Y002851D01*
X005818Y002970D02*
X003502Y002970D01*
X003510Y003088D02*
X003476Y003088D01*
X003346Y003207D02*
X001620Y003207D01*
X001620Y003325D02*
X003243Y003325D01*
X003194Y003444D02*
X001620Y003444D01*
X001620Y003562D02*
X003157Y003562D01*
X003157Y003681D02*
X001620Y003681D01*
X001620Y003799D02*
X003162Y003799D01*
X003211Y003918D02*
X001620Y003918D01*
X001620Y004036D02*
X002300Y004036D01*
X002275Y004155D02*
X001620Y004155D01*
X001620Y004273D02*
X002275Y004273D01*
X002275Y004392D02*
X001620Y004392D01*
X001620Y004510D02*
X002275Y004510D01*
X002275Y004629D02*
X001620Y004629D01*
X001620Y004747D02*
X002275Y004747D01*
X002275Y004866D02*
X001620Y004866D01*
X001620Y004984D02*
X002275Y004984D01*
X002275Y005103D02*
X001620Y005103D01*
X001620Y005221D02*
X001708Y005221D01*
X001631Y005340D02*
X001620Y005340D01*
X001620Y005458D02*
X001631Y005458D01*
X001620Y005577D02*
X001631Y005577D01*
X001620Y005695D02*
X001631Y005695D01*
X001620Y005814D02*
X001631Y005814D01*
X001620Y005932D02*
X001689Y005932D01*
X001694Y006051D02*
X001620Y006051D01*
X001620Y006169D02*
X001671Y006169D01*
X001671Y006288D02*
X001620Y006288D01*
X001671Y006372D02*
X002088Y006372D01*
X002089Y006372D02*
X002089Y006711D01*
X001828Y006711D01*
X001782Y006699D01*
X001741Y006675D01*
X001707Y006641D01*
X001684Y006600D01*
X001671Y006555D01*
X001671Y006372D01*
X001671Y006406D02*
X001620Y006406D01*
X001620Y006525D02*
X001671Y006525D01*
X001709Y006643D02*
X001620Y006643D01*
X001620Y006762D02*
X002585Y006762D01*
X002585Y006880D02*
X001620Y006880D01*
X001620Y006999D02*
X002585Y006999D01*
X002585Y007117D02*
X001620Y007117D01*
X001620Y007236D02*
X002585Y007236D01*
X002585Y007354D02*
X001620Y007354D01*
X001620Y007473D02*
X002585Y007473D01*
X002670Y007591D02*
X001620Y007591D01*
X001620Y007710D02*
X002689Y007710D01*
X002585Y007828D02*
X001620Y007828D01*
X001620Y007947D02*
X002585Y007947D01*
X002585Y008065D02*
X001620Y008065D01*
X001620Y008184D02*
X002585Y008184D01*
X002585Y008302D02*
X001620Y008302D01*
X001620Y008421D02*
X002585Y008421D01*
X002585Y008539D02*
X001620Y008539D01*
X001620Y008658D02*
X002617Y008658D01*
X002840Y008776D02*
X001620Y008776D01*
X001620Y008895D02*
X002731Y008895D01*
X002682Y009013D02*
X001620Y009013D01*
X001620Y009132D02*
X002662Y009132D01*
X002662Y009250D02*
X001620Y009250D01*
X001620Y009369D02*
X002707Y009369D01*
X002701Y009487D02*
X001620Y009487D01*
X001620Y009606D02*
X002586Y009606D01*
X002586Y009724D02*
X001620Y009724D01*
X001620Y009843D02*
X002586Y009843D01*
X002586Y009961D02*
X001620Y009961D01*
X001620Y010080D02*
X002586Y010080D01*
X002586Y010198D02*
X001620Y010198D01*
X001620Y010317D02*
X002586Y010317D01*
X002606Y010435D02*
X001620Y010435D01*
X001620Y010554D02*
X003570Y010554D01*
X003220Y010672D02*
X003100Y010672D01*
X003100Y010616D02*
X003100Y011051D01*
X002626Y011051D01*
X002626Y010773D01*
X002638Y010727D01*
X002662Y010686D01*
X002695Y010652D01*
X002736Y010628D01*
X002782Y010616D01*
X003100Y010616D01*
X003100Y010791D02*
X003220Y010791D01*
X003220Y010909D02*
X003100Y010909D01*
X003100Y011028D02*
X003220Y011028D01*
X003100Y011146D02*
X001620Y011146D01*
X001620Y011028D02*
X002626Y011028D01*
X002626Y010909D02*
X001620Y010909D01*
X001620Y010791D02*
X002626Y010791D01*
X002675Y010672D02*
X001620Y010672D01*
X001620Y011265D02*
X002626Y011265D01*
X002626Y011171D02*
X003100Y011171D01*
X003100Y011606D01*
X002782Y011606D01*
X002736Y011594D01*
X002695Y011570D01*
X002662Y011537D01*
X002638Y011496D01*
X002626Y011450D01*
X002626Y011171D01*
X002626Y011383D02*
X001620Y011383D01*
X001620Y011502D02*
X002641Y011502D01*
X003100Y011502D02*
X003220Y011502D01*
X003220Y011383D02*
X003100Y011383D01*
X003100Y011265D02*
X003220Y011265D01*
X003684Y011620D02*
X001620Y011620D01*
X001620Y011739D02*
X005443Y011739D01*
X005561Y011857D02*
X001620Y011857D01*
X001620Y011976D02*
X007491Y011976D01*
X007630Y012094D02*
X001620Y012094D01*
X003160Y010160D02*
X003160Y010009D01*
X003960Y009960D02*
X003960Y010160D01*
X003960Y009960D02*
X004460Y009460D01*
X005860Y009460D01*
X006660Y008660D01*
X008160Y008660D01*
X008160Y009660D02*
X007960Y009860D01*
X006570Y007828D02*
X005698Y007828D01*
X005710Y007947D02*
X006443Y007947D01*
X006316Y008065D02*
X005710Y008065D01*
X005710Y008184D02*
X006189Y008184D01*
X006062Y008302D02*
X005710Y008302D01*
X005710Y008330D02*
X005410Y008330D01*
X005710Y008330D01*
X005710Y008421D02*
X005935Y008421D01*
X005808Y008539D02*
X005710Y008539D01*
X005410Y008330D02*
X005410Y008330D01*
X005410Y007715D01*
X005410Y008330D01*
X005410Y008330D01*
X005410Y008302D02*
X005410Y008302D01*
X005410Y008184D02*
X005410Y008184D01*
X005410Y008065D02*
X005410Y008065D01*
X005410Y007947D02*
X005410Y007947D01*
X005410Y007828D02*
X005410Y007828D01*
X005190Y007710D02*
X006697Y007710D01*
X006824Y007591D02*
X005190Y007591D01*
X005190Y007473D02*
X006950Y007473D01*
X006393Y007117D02*
X005675Y007117D01*
X005675Y006999D02*
X006297Y006999D01*
X006297Y006880D02*
X005675Y006880D01*
X005675Y007236D02*
X007606Y007236D01*
X007487Y007354D02*
X005663Y007354D01*
X005160Y006995D02*
X004910Y007245D01*
X004910Y008330D01*
X005525Y006460D02*
X005160Y006325D01*
X005160Y006160D01*
X004660Y005660D01*
X004660Y004644D01*
X004345Y004644D02*
X004345Y006140D01*
X004160Y006325D01*
X004093Y006258D01*
X003660Y006258D01*
X003362Y005960D01*
X002993Y005960D01*
X003140Y006406D02*
X002583Y006406D01*
X002583Y006525D02*
X003092Y006525D01*
X003502Y006258D02*
X003160Y007100D01*
X002636Y006643D02*
X002545Y006643D01*
X002165Y006643D02*
X002089Y006643D01*
X002089Y006525D02*
X002165Y006525D01*
X002165Y006406D02*
X002089Y006406D01*
X002127Y006334D02*
X002160Y006160D01*
X002265Y006296D01*
X002165Y006288D02*
X002089Y006288D01*
X002089Y006169D02*
X002165Y006169D01*
X002165Y006051D02*
X002089Y006051D01*
X003502Y006258D02*
X003660Y006258D01*
X004093Y006258D02*
X004093Y006227D01*
X003660Y005560D02*
X004030Y005190D01*
X004030Y004644D01*
X004377Y003918D02*
X004943Y003918D01*
X004894Y003799D02*
X004426Y003799D01*
X004431Y003681D02*
X004889Y003681D01*
X004889Y003562D02*
X004431Y003562D01*
X004394Y003444D02*
X004926Y003444D01*
X004975Y003325D02*
X004345Y003325D01*
X004241Y003207D02*
X005079Y003207D01*
X005242Y003088D02*
X004078Y003088D01*
X005568Y004392D02*
X005818Y004392D01*
X005818Y004510D02*
X005568Y004510D01*
X005568Y004629D02*
X005818Y004629D01*
X005818Y004747D02*
X005568Y004747D01*
X005568Y004866D02*
X005818Y004866D01*
X005818Y004984D02*
X005568Y004984D01*
X005568Y005103D02*
X005818Y005103D01*
X005818Y005221D02*
X005547Y005221D01*
X005181Y005340D02*
X005930Y005340D01*
X006364Y005695D02*
X005091Y005695D01*
X005210Y005814D02*
X006337Y005814D01*
X006337Y005932D02*
X005629Y005932D01*
X005927Y006360D02*
X005525Y006460D01*
X006755Y005932D02*
X006831Y005932D01*
X006831Y005814D02*
X006755Y005814D01*
X006755Y005695D02*
X006831Y005695D01*
X007216Y006288D02*
X007528Y006288D01*
X007480Y006406D02*
X007249Y006406D01*
X008100Y006762D02*
X008220Y006762D01*
X008220Y006880D02*
X008100Y006880D01*
X008100Y006999D02*
X008220Y006999D01*
X008470Y003918D02*
X006109Y003918D01*
X006158Y003799D02*
X008470Y003799D01*
X008470Y003681D02*
X006163Y003681D01*
X006163Y003562D02*
X008470Y003562D01*
X008470Y003444D02*
X006126Y003444D01*
X006077Y003325D02*
X008470Y003325D01*
X008470Y003207D02*
X005974Y003207D01*
X005844Y003088D02*
X005810Y003088D01*
X005818Y004273D02*
X005711Y004273D01*
X008470Y001666D02*
X001620Y001666D01*
X001620Y001785D02*
X002386Y001785D01*
X002275Y001903D02*
X001620Y001903D01*
X001620Y002022D02*
X002275Y002022D01*
X002275Y002140D02*
X001620Y002140D01*
X001620Y002259D02*
X002275Y002259D01*
X002275Y002377D02*
X001620Y002377D01*
X001620Y002496D02*
X002275Y002496D01*
X002275Y002614D02*
X001620Y002614D01*
X001620Y002733D02*
X002275Y002733D01*
X002275Y002851D02*
X001620Y002851D01*
X001620Y002970D02*
X002275Y002970D01*
X002301Y003088D02*
X001620Y003088D01*
X004960Y010460D02*
X004960Y010930D01*
X004910Y010980D01*
X004684Y011620D02*
X004636Y011620D01*
X004184Y011620D02*
X004136Y011620D01*
X005136Y011620D02*
X005184Y011620D01*
D21*
X003160Y009160D03*
X003660Y005560D03*
M02*
