G75*
%MOIN*%
%OFA0B0*%
%FSLAX24Y24*%
%IPPOS*%
%LPD*%
%AMOC8*
5,1,8,0,0,1.08239X$1,22.5*
%
%ADD10C,0.0120*%
%ADD11C,0.0556*%
D10*
X001620Y001620D02*
X001620Y012196D01*
X008470Y012196D01*
X008470Y001620D01*
X001620Y001620D01*
X001620Y001666D02*
X008470Y001666D01*
X008470Y001785D02*
X001620Y001785D01*
X001620Y001903D02*
X008470Y001903D01*
X008470Y002022D02*
X001620Y002022D01*
X001620Y002140D02*
X008470Y002140D01*
X008470Y002259D02*
X001620Y002259D01*
X001620Y002377D02*
X008470Y002377D01*
X008470Y002496D02*
X001620Y002496D01*
X001620Y002614D02*
X008470Y002614D01*
X008470Y002733D02*
X001620Y002733D01*
X001620Y002851D02*
X008470Y002851D01*
X008470Y002970D02*
X001620Y002970D01*
X001620Y003088D02*
X003510Y003088D01*
X003433Y003120D02*
X003667Y003023D01*
X003921Y003023D01*
X004155Y003120D01*
X004334Y003299D01*
X004431Y003533D01*
X004431Y003787D01*
X004334Y004021D01*
X004155Y004200D01*
X003921Y004297D01*
X003667Y004297D01*
X003433Y004200D01*
X003254Y004021D01*
X003157Y003787D01*
X003157Y003533D01*
X003254Y003299D01*
X003433Y003120D01*
X003346Y003207D02*
X001620Y003207D01*
X001620Y003325D02*
X003243Y003325D01*
X003194Y003444D02*
X001620Y003444D01*
X001620Y003562D02*
X003157Y003562D01*
X003157Y003681D02*
X001620Y003681D01*
X001620Y003799D02*
X003162Y003799D01*
X003211Y003918D02*
X001620Y003918D01*
X001620Y004036D02*
X003269Y004036D01*
X003387Y004155D02*
X001620Y004155D01*
X001620Y004273D02*
X003609Y004273D01*
X003979Y004273D02*
X005341Y004273D01*
X005399Y004297D02*
X005165Y004200D01*
X004986Y004021D01*
X004889Y003787D01*
X004889Y003533D01*
X004986Y003299D01*
X005165Y003120D01*
X005399Y003023D01*
X005653Y003023D01*
X005887Y003120D01*
X006066Y003299D01*
X006163Y003533D01*
X006163Y003787D01*
X006066Y004021D01*
X005887Y004200D01*
X005653Y004297D01*
X005399Y004297D01*
X005120Y004155D02*
X004200Y004155D01*
X004319Y004036D02*
X005001Y004036D01*
X004943Y003918D02*
X004377Y003918D01*
X004426Y003799D02*
X004894Y003799D01*
X004889Y003681D02*
X004431Y003681D01*
X004431Y003562D02*
X004889Y003562D01*
X004926Y003444D02*
X004394Y003444D01*
X004345Y003325D02*
X004975Y003325D01*
X005079Y003207D02*
X004241Y003207D01*
X004078Y003088D02*
X005242Y003088D01*
X005810Y003088D02*
X008470Y003088D01*
X008470Y003207D02*
X005974Y003207D01*
X006077Y003325D02*
X008470Y003325D01*
X008470Y003444D02*
X006126Y003444D01*
X006163Y003562D02*
X008470Y003562D01*
X008470Y003681D02*
X006163Y003681D01*
X006158Y003799D02*
X008470Y003799D01*
X008470Y003918D02*
X006109Y003918D01*
X006051Y004036D02*
X008470Y004036D01*
X008470Y004155D02*
X005933Y004155D01*
X005711Y004273D02*
X008470Y004273D01*
X008470Y004392D02*
X001620Y004392D01*
X001620Y004510D02*
X008470Y004510D01*
X008470Y004629D02*
X001620Y004629D01*
X001620Y004747D02*
X008470Y004747D01*
X008470Y004866D02*
X001620Y004866D01*
X001620Y004984D02*
X008470Y004984D01*
X008470Y005103D02*
X001620Y005103D01*
X001620Y005221D02*
X008470Y005221D01*
X008470Y005340D02*
X001620Y005340D01*
X001620Y005458D02*
X008470Y005458D01*
X008470Y005577D02*
X001620Y005577D01*
X001620Y005695D02*
X008470Y005695D01*
X008470Y005814D02*
X001620Y005814D01*
X001620Y005932D02*
X008470Y005932D01*
X008470Y006051D02*
X001620Y006051D01*
X001620Y006169D02*
X008470Y006169D01*
X008470Y006288D02*
X001620Y006288D01*
X001620Y006406D02*
X008470Y006406D01*
X008470Y006525D02*
X001620Y006525D01*
X001620Y006643D02*
X008470Y006643D01*
X008470Y006762D02*
X001620Y006762D01*
X001620Y006880D02*
X008470Y006880D01*
X008470Y006999D02*
X001620Y006999D01*
X001620Y007117D02*
X008470Y007117D01*
X008470Y007236D02*
X001620Y007236D01*
X001620Y007354D02*
X008470Y007354D01*
X008470Y007473D02*
X001620Y007473D01*
X001620Y007591D02*
X008470Y007591D01*
X008470Y007710D02*
X001620Y007710D01*
X001620Y007828D02*
X008470Y007828D01*
X008470Y007947D02*
X001620Y007947D01*
X001620Y008065D02*
X008470Y008065D01*
X008470Y008184D02*
X001620Y008184D01*
X001620Y008302D02*
X008470Y008302D01*
X008470Y008421D02*
X001620Y008421D01*
X001620Y008539D02*
X008470Y008539D01*
X008470Y008658D02*
X001620Y008658D01*
X001620Y008776D02*
X008470Y008776D01*
X008470Y008895D02*
X001620Y008895D01*
X001620Y009013D02*
X008470Y009013D01*
X008470Y009132D02*
X001620Y009132D01*
X001620Y009250D02*
X008470Y009250D01*
X008470Y009369D02*
X001620Y009369D01*
X001620Y009487D02*
X008470Y009487D01*
X008470Y009606D02*
X001620Y009606D01*
X001620Y009724D02*
X008470Y009724D01*
X008470Y009843D02*
X001620Y009843D01*
X001620Y009961D02*
X008470Y009961D01*
X008470Y010080D02*
X001620Y010080D01*
X001620Y010198D02*
X008470Y010198D01*
X008470Y010317D02*
X001620Y010317D01*
X001620Y010435D02*
X008470Y010435D01*
X008470Y010554D02*
X001620Y010554D01*
X001620Y010672D02*
X008470Y010672D01*
X008470Y010791D02*
X001620Y010791D01*
X001620Y010909D02*
X008470Y010909D01*
X008470Y011028D02*
X001620Y011028D01*
X001620Y011146D02*
X008470Y011146D01*
X008470Y011265D02*
X001620Y011265D01*
X001620Y011383D02*
X008470Y011383D01*
X008470Y011502D02*
X001620Y011502D01*
X001620Y011620D02*
X008470Y011620D01*
X008470Y011739D02*
X001620Y011739D01*
X001620Y011857D02*
X008470Y011857D01*
X008470Y011976D02*
X001620Y011976D01*
X001620Y012094D02*
X008470Y012094D01*
X003660Y008660D02*
X003660Y005560D01*
X003660Y008660D02*
X003160Y009160D01*
D11*
X003160Y009160D03*
X003660Y005560D03*
M02*
