G75*
%MOIN*%
%OFA0B0*%
%FSLAX24Y24*%
%IPPOS*%
%LPD*%
%AMOC8*
5,1,8,0,0,1.08239X$1,22.5*
%
%ADD10C,0.0020*%
%ADD11C,0.0040*%
%ADD12C,0.0010*%
%ADD13R,0.0295X0.0669*%
%ADD14C,0.0060*%
%ADD15C,0.0050*%
%ADD16R,0.0200X0.0200*%
%ADD17R,0.0256X0.0551*%
%ADD18R,0.0290X0.0690*%
%ADD19C,0.0100*%
%ADD20C,0.0030*%
%ADD21R,0.0669X0.0295*%
%ADD22C,0.0079*%
%ADD23R,0.0330X0.0180*%
%ADD24R,0.0330X0.0220*%
%ADD25C,0.0080*%
D10*
X003413Y003126D02*
X004187Y003126D01*
X004187Y005074D01*
X003413Y005074D01*
X003413Y003126D01*
X006323Y003487D02*
X006323Y002713D01*
X007877Y002713D01*
X007877Y003487D01*
X006323Y003487D01*
X006323Y003713D02*
X006323Y004487D01*
X007877Y004487D01*
X007877Y003713D01*
X006323Y003713D01*
X006326Y004713D02*
X006326Y005487D01*
X008274Y005487D01*
X008274Y004713D01*
X006326Y004713D01*
X009126Y001987D02*
X009126Y001213D01*
X011074Y001213D01*
X011074Y001987D01*
X009126Y001987D01*
D11*
X009720Y001910D02*
X010480Y001910D01*
X010480Y001290D02*
X009720Y001290D01*
X007267Y002220D02*
X006960Y002220D01*
X007267Y002527D01*
X007267Y002604D01*
X007190Y002680D01*
X007036Y002680D01*
X006960Y002604D01*
X006806Y002604D02*
X006806Y002450D01*
X006729Y002373D01*
X006499Y002373D01*
X006499Y002220D02*
X006499Y002680D01*
X006729Y002680D01*
X006806Y002604D01*
X006653Y002373D02*
X006806Y002220D01*
X006806Y003220D02*
X006653Y003373D01*
X006729Y003373D02*
X006499Y003373D01*
X006729Y003373D02*
X006806Y003450D01*
X006806Y003604D01*
X006729Y003680D01*
X006499Y003680D01*
X006499Y003220D01*
X006960Y003220D02*
X007267Y003220D01*
X007113Y003220D02*
X007113Y003680D01*
X006960Y003527D01*
X006960Y003520D02*
X006960Y003827D01*
X007036Y003827D01*
X007113Y003750D01*
X007190Y003827D01*
X007267Y003750D01*
X007267Y003520D01*
X007113Y003520D02*
X007113Y003750D01*
X006806Y003750D02*
X006806Y003520D01*
X006499Y003520D02*
X006499Y003980D01*
X006576Y003827D02*
X006729Y003827D01*
X006806Y003750D01*
X006576Y003827D02*
X006499Y003750D01*
X006346Y003750D02*
X006269Y003827D01*
X006116Y003827D01*
X006039Y003750D01*
X006039Y003597D01*
X006116Y003520D01*
X006269Y003520D01*
X006346Y003597D01*
X006346Y003750D01*
X006770Y004170D02*
X007077Y004170D01*
X007230Y004170D02*
X007230Y004630D01*
X007267Y004520D02*
X007267Y004750D01*
X007190Y004827D01*
X007113Y004750D01*
X007113Y004520D01*
X006960Y004520D02*
X006960Y004827D01*
X007036Y004827D01*
X007113Y004750D01*
X006923Y004630D02*
X006923Y004170D01*
X007230Y004323D02*
X007461Y004477D01*
X007230Y004323D02*
X007461Y004170D01*
X008074Y004247D02*
X008074Y004554D01*
X008151Y004630D01*
X008305Y004630D01*
X008381Y004554D01*
X008381Y004247D01*
X008305Y004170D01*
X008151Y004170D01*
X008074Y004247D01*
X008535Y004170D02*
X008535Y004630D01*
X008612Y004477D02*
X008765Y004477D01*
X008842Y004400D01*
X008842Y004170D01*
X008995Y004170D02*
X008995Y004477D01*
X009072Y004477D01*
X009149Y004400D01*
X009225Y004477D01*
X009302Y004400D01*
X009302Y004170D01*
X009149Y004170D02*
X009149Y004400D01*
X008612Y004477D02*
X008535Y004400D01*
X006923Y004630D02*
X006770Y004477D01*
X006806Y004520D02*
X006806Y004750D01*
X006729Y004827D01*
X006576Y004827D01*
X006499Y004750D01*
X006346Y004750D02*
X006269Y004827D01*
X006116Y004827D01*
X006039Y004750D01*
X006039Y004597D01*
X006116Y004520D01*
X006269Y004520D01*
X006346Y004597D01*
X006346Y004750D01*
X006499Y004980D02*
X006499Y004520D01*
X005885Y004597D02*
X005809Y004520D01*
X005655Y004520D01*
X005578Y004597D01*
X005578Y004673D01*
X005655Y004750D01*
X005809Y004750D01*
X005885Y004673D01*
X005885Y004597D01*
X005809Y004750D02*
X005885Y004827D01*
X005885Y004904D01*
X005809Y004980D01*
X005655Y004980D01*
X005578Y004904D01*
X005578Y004827D01*
X005655Y004750D01*
X005425Y004673D02*
X005348Y004750D01*
X005118Y004750D01*
X005118Y004597D01*
X005195Y004520D01*
X005348Y004520D01*
X005425Y004597D01*
X005425Y004673D01*
X005271Y004904D02*
X005118Y004750D01*
X005271Y004904D02*
X005425Y004980D01*
X004110Y004480D02*
X004110Y003720D01*
X003791Y003710D02*
X003791Y003864D01*
X003714Y003940D01*
X003791Y004094D02*
X003330Y004094D01*
X003330Y004324D01*
X003407Y004401D01*
X003560Y004401D01*
X003637Y004324D01*
X003637Y004094D01*
X003407Y003940D02*
X003330Y003864D01*
X003330Y003710D01*
X003407Y003634D01*
X003714Y003634D01*
X003791Y003710D01*
X003791Y003480D02*
X003330Y003480D01*
X003484Y003327D01*
X003330Y003173D01*
X003791Y003173D01*
X004658Y003597D02*
X004734Y003520D01*
X004888Y003520D01*
X004965Y003597D01*
X004965Y003673D01*
X004888Y003750D01*
X004658Y003750D01*
X004658Y003597D01*
X004658Y003750D02*
X004811Y003904D01*
X004965Y003980D01*
X005118Y003904D02*
X005118Y003827D01*
X005195Y003750D01*
X005348Y003750D01*
X005425Y003673D01*
X005425Y003597D01*
X005348Y003520D01*
X005195Y003520D01*
X005118Y003597D01*
X005118Y003673D01*
X005195Y003750D01*
X005348Y003750D02*
X005425Y003827D01*
X005425Y003904D01*
X005348Y003980D01*
X005195Y003980D01*
X005118Y003904D01*
X003791Y004554D02*
X003791Y004861D01*
X003791Y004708D02*
X003330Y004708D01*
X003484Y004554D01*
X003490Y004480D02*
X003490Y003720D01*
X003330Y005015D02*
X003330Y005322D01*
X003407Y005322D01*
X003714Y005015D01*
X003791Y005015D01*
X003714Y005475D02*
X003407Y005475D01*
X003330Y005552D01*
X003330Y005705D01*
X003407Y005782D01*
X003714Y005475D01*
X003791Y005552D01*
X003791Y005705D01*
X003714Y005782D01*
X003407Y005782D01*
X003407Y005935D02*
X003330Y006012D01*
X003330Y006166D01*
X003407Y006242D01*
X003484Y006242D01*
X003560Y006166D01*
X003637Y006242D01*
X003714Y006242D01*
X003791Y006166D01*
X003791Y006012D01*
X003714Y005935D01*
X003560Y006089D02*
X003560Y006166D01*
X003407Y006396D02*
X003330Y006473D01*
X003330Y006626D01*
X003407Y006703D01*
X003484Y006703D01*
X003560Y006626D01*
X003637Y006703D01*
X003714Y006703D01*
X003791Y006626D01*
X003791Y006473D01*
X003714Y006396D01*
X003560Y006549D02*
X003560Y006626D01*
X003407Y006856D02*
X003330Y006933D01*
X003330Y007086D01*
X003407Y007163D01*
X003484Y007163D01*
X003560Y007086D01*
X003637Y007163D01*
X003714Y007163D01*
X003791Y007086D01*
X003791Y006933D01*
X003714Y006856D01*
X003560Y007010D02*
X003560Y007086D01*
X003330Y007317D02*
X003484Y007470D01*
X003330Y007624D01*
X003791Y007624D01*
X003791Y007777D02*
X003791Y008007D01*
X003714Y008084D01*
X003637Y008084D01*
X003560Y008007D01*
X003560Y007777D01*
X003330Y007777D02*
X003330Y008007D01*
X003407Y008084D01*
X003484Y008084D01*
X003560Y008007D01*
X003791Y007777D02*
X003330Y007777D01*
X003330Y007317D02*
X003791Y007317D01*
X006770Y006030D02*
X007000Y006030D01*
X007077Y005954D01*
X007077Y005800D01*
X007000Y005723D01*
X006770Y005723D01*
X006923Y005723D02*
X007077Y005570D01*
X007230Y005647D02*
X007307Y005570D01*
X007461Y005570D01*
X007537Y005647D01*
X007537Y005723D01*
X007461Y005800D01*
X007384Y005800D01*
X007461Y005800D02*
X007537Y005877D01*
X007537Y005954D01*
X007461Y006030D01*
X007307Y006030D01*
X007230Y005954D01*
X006770Y006030D02*
X006770Y005570D01*
X000830Y004194D02*
X000830Y003887D01*
X000753Y003734D02*
X000830Y003657D01*
X000830Y003504D01*
X000753Y003427D01*
X000446Y003427D01*
X000370Y003504D01*
X000370Y003657D01*
X000446Y003734D01*
X000523Y003887D02*
X000370Y004041D01*
X000830Y004041D01*
X000830Y003273D02*
X000830Y003120D01*
X000830Y003197D02*
X000370Y003197D01*
X000370Y003273D02*
X000370Y003120D01*
D12*
X003205Y004263D02*
X003255Y004213D01*
X003205Y004263D02*
X003355Y004263D01*
X003355Y004213D02*
X003355Y004313D01*
X003330Y004360D02*
X003255Y004360D01*
X003330Y004360D02*
X003355Y004385D01*
X003355Y004460D01*
X003255Y004460D01*
X003280Y004508D02*
X003280Y004558D01*
X003205Y004508D02*
X003205Y004608D01*
X003205Y004508D02*
X003355Y004508D01*
X004255Y004533D02*
X004255Y004483D01*
X004280Y004458D01*
X004280Y004410D02*
X004255Y004385D01*
X004255Y004335D01*
X004280Y004310D01*
X004380Y004310D01*
X004405Y004335D01*
X004405Y004385D01*
X004380Y004410D01*
X004405Y004458D02*
X004305Y004558D01*
X004280Y004558D01*
X004255Y004533D01*
X004405Y004558D02*
X004405Y004458D01*
X010213Y002145D02*
X010263Y002195D01*
X010263Y002045D01*
X010213Y002045D02*
X010313Y002045D01*
X010360Y002070D02*
X010385Y002045D01*
X010460Y002045D01*
X010460Y002145D01*
X010508Y002120D02*
X010558Y002120D01*
X010508Y002195D02*
X010608Y002195D01*
X010508Y002195D02*
X010508Y002045D01*
X010360Y002070D02*
X010360Y002145D01*
X010335Y001145D02*
X010310Y001120D01*
X010310Y001020D01*
X010335Y000995D01*
X010385Y000995D01*
X010410Y001020D01*
X010458Y000995D02*
X010558Y000995D01*
X010508Y000995D02*
X010508Y001145D01*
X010458Y001095D01*
X010410Y001120D02*
X010385Y001145D01*
X010335Y001145D01*
D13*
X010622Y001600D03*
X009578Y001600D03*
D14*
X004800Y001850D02*
X004800Y002350D01*
X005050Y002600D01*
X004800Y002850D01*
X004800Y003350D01*
X005050Y003600D01*
X004800Y003850D01*
X004800Y004350D01*
X005050Y004600D01*
X004800Y004850D01*
X004800Y005350D01*
X005050Y005600D01*
X005550Y005600D01*
X005800Y005350D01*
X005800Y004850D01*
X005550Y004600D01*
X005800Y004350D01*
X005800Y003850D01*
X005550Y003600D01*
X005050Y003600D01*
X005550Y003600D02*
X005800Y003350D01*
X005800Y002850D01*
X005550Y002600D01*
X005800Y002350D01*
X005800Y001850D01*
X005550Y001600D01*
X005050Y001600D01*
X004800Y001850D01*
X005050Y002600D02*
X005550Y002600D01*
X006939Y002850D02*
X007261Y002850D01*
X007261Y003350D02*
X006939Y003350D01*
X006939Y003850D02*
X007261Y003850D01*
X007261Y004350D02*
X006939Y004350D01*
X006920Y004780D02*
X007675Y004780D01*
X007675Y005420D02*
X006920Y005420D01*
X005550Y004600D02*
X005050Y004600D01*
D15*
X006045Y004574D02*
X006420Y004574D01*
X006495Y004499D01*
X006495Y004349D01*
X006420Y004274D01*
X006045Y004274D01*
X006120Y004734D02*
X006195Y004734D01*
X006270Y004809D01*
X006270Y004959D01*
X006345Y005034D01*
X006420Y005034D01*
X006495Y004959D01*
X006495Y004809D01*
X006420Y004734D01*
X006120Y004734D02*
X006045Y004809D01*
X006045Y004959D01*
X006120Y005034D01*
X006045Y005195D02*
X006045Y005420D01*
X006120Y005495D01*
X006195Y005495D01*
X006270Y005420D01*
X006270Y005195D01*
X006495Y005195D02*
X006045Y005195D01*
X006270Y005420D02*
X006345Y005495D01*
X006420Y005495D01*
X006495Y005420D01*
X006495Y005195D01*
X009125Y006450D02*
X009200Y006375D01*
X009350Y006375D01*
X009425Y006450D01*
X009425Y006825D01*
X009585Y006750D02*
X009660Y006825D01*
X009811Y006825D01*
X009886Y006750D01*
X009886Y006675D01*
X009585Y006375D01*
X009886Y006375D01*
X009125Y006450D02*
X009125Y006825D01*
X010450Y005215D02*
X010600Y005215D01*
X010675Y005140D01*
X010675Y004915D01*
X010825Y004915D02*
X010375Y004915D01*
X010375Y005140D01*
X010450Y005215D01*
X010375Y004758D02*
X010375Y004608D01*
X010375Y004683D02*
X010825Y004683D01*
X010825Y004608D02*
X010825Y004758D01*
X010750Y004448D02*
X010450Y004448D01*
X010375Y004372D01*
X010375Y004147D01*
X010825Y004147D01*
X010825Y004372D01*
X010750Y004448D01*
X010600Y003987D02*
X010600Y003687D01*
X010450Y003527D02*
X010750Y003527D01*
X010825Y003452D01*
X010825Y003302D01*
X010750Y003226D01*
X010450Y003527D01*
X010375Y003452D01*
X010375Y003302D01*
X010450Y003226D01*
X010750Y003226D01*
X010825Y003066D02*
X010825Y002766D01*
X010525Y003066D01*
X010450Y003066D01*
X010375Y002991D01*
X010375Y002841D01*
X010450Y002766D01*
X010600Y002606D02*
X010600Y002306D01*
X010600Y002146D02*
X010750Y002146D01*
X010825Y002071D01*
X010825Y001920D01*
X010750Y001845D01*
X010600Y001845D02*
X010525Y001995D01*
X010525Y002071D01*
X010600Y002146D01*
X010375Y002146D02*
X010375Y001845D01*
X010600Y001845D01*
X010600Y001685D02*
X010600Y001385D01*
X010375Y001610D01*
X010825Y001610D01*
X010450Y001225D02*
X010375Y001225D01*
X010450Y001225D02*
X010600Y001075D01*
X010825Y001075D01*
X010600Y001075D02*
X010450Y000925D01*
X010375Y000925D01*
X010375Y000764D02*
X010825Y000764D01*
X010375Y000464D01*
X010825Y000464D01*
X010825Y000307D02*
X010825Y000157D01*
X010825Y000232D02*
X010375Y000232D01*
X010375Y000157D02*
X010375Y000307D01*
X010375Y-000003D02*
X010375Y-000303D01*
X010375Y-000153D02*
X010825Y-000153D01*
X002590Y003220D02*
X001620Y003220D01*
X001620Y004980D01*
X002590Y004980D01*
X002590Y003220D01*
D16*
X005300Y003100D03*
X005300Y002100D03*
X005300Y004100D03*
X005300Y005100D03*
D17*
X006812Y004099D03*
X007392Y004099D03*
X007392Y003099D03*
X006812Y003099D03*
D18*
X006780Y005100D03*
X007820Y005100D03*
D19*
X009817Y005600D02*
X009819Y005633D01*
X009825Y005666D01*
X009835Y005699D01*
X009848Y005729D01*
X009865Y005758D01*
X009886Y005785D01*
X009909Y005809D01*
X009935Y005830D01*
X009963Y005848D01*
X009994Y005862D01*
X010025Y005873D01*
X010058Y005880D01*
X010092Y005883D01*
X010125Y005882D01*
X010158Y005877D01*
X010191Y005868D01*
X010222Y005855D01*
X010251Y005839D01*
X010278Y005820D01*
X010303Y005797D01*
X010325Y005772D01*
X010344Y005744D01*
X010359Y005714D01*
X010371Y005683D01*
X010379Y005650D01*
X010383Y005617D01*
X010383Y005583D01*
X010379Y005550D01*
X010371Y005517D01*
X010359Y005486D01*
X010344Y005456D01*
X010325Y005428D01*
X010303Y005403D01*
X010278Y005380D01*
X010251Y005361D01*
X010222Y005345D01*
X010191Y005332D01*
X010158Y005323D01*
X010125Y005318D01*
X010092Y005317D01*
X010058Y005320D01*
X010025Y005327D01*
X009994Y005338D01*
X009963Y005352D01*
X009935Y005370D01*
X009909Y005391D01*
X009886Y005415D01*
X009865Y005442D01*
X009848Y005471D01*
X009835Y005501D01*
X009825Y005534D01*
X009819Y005567D01*
X009817Y005600D01*
X012600Y007600D02*
X014600Y007600D01*
X014600Y000600D01*
X012600Y000600D01*
X012600Y007600D01*
D20*
X013173Y007197D02*
X013221Y007245D01*
X013318Y007245D01*
X013367Y007197D01*
X013367Y007100D02*
X013270Y007100D01*
X013367Y007100D02*
X013367Y007003D01*
X013318Y006955D01*
X013221Y006955D01*
X013173Y007003D01*
X013173Y007197D01*
X013468Y007245D02*
X013468Y006955D01*
X013661Y006955D02*
X013661Y007245D01*
X013762Y007245D02*
X013907Y007245D01*
X013956Y007197D01*
X013956Y007003D01*
X013907Y006955D01*
X013762Y006955D01*
X013762Y007245D01*
X013468Y007245D02*
X013661Y006955D01*
X013613Y006245D02*
X013516Y006245D01*
X013468Y006197D01*
X013468Y006148D01*
X013516Y006100D01*
X013613Y006100D01*
X013661Y006052D01*
X013661Y006003D01*
X013613Y005955D01*
X013516Y005955D01*
X013468Y006003D01*
X013367Y005955D02*
X013173Y005955D01*
X013173Y006245D01*
X013367Y006245D01*
X013270Y006100D02*
X013173Y006100D01*
X013072Y006100D02*
X013023Y006052D01*
X012878Y006052D01*
X012878Y005955D02*
X012878Y006245D01*
X013023Y006245D01*
X013072Y006197D01*
X013072Y006100D01*
X012975Y006052D02*
X013072Y005955D01*
X013613Y006245D02*
X013661Y006197D01*
X013762Y006245D02*
X013762Y005955D01*
X013956Y005955D01*
X013859Y006100D02*
X013762Y006100D01*
X013762Y006245D02*
X013956Y006245D01*
X014057Y006245D02*
X014250Y006245D01*
X014154Y006245D02*
X014154Y005955D01*
X013907Y005245D02*
X013811Y005245D01*
X013762Y005197D01*
X013762Y005003D01*
X013811Y004955D01*
X013907Y004955D01*
X013956Y005003D01*
X013661Y005003D02*
X013613Y004955D01*
X013516Y004955D01*
X013468Y005003D01*
X013468Y005197D01*
X013516Y005245D01*
X013613Y005245D01*
X013661Y005197D01*
X013907Y005245D02*
X013956Y005197D01*
X013367Y005245D02*
X013367Y005052D01*
X013270Y004955D01*
X013173Y005052D01*
X013173Y005245D01*
X013221Y004245D02*
X013173Y004197D01*
X013173Y004148D01*
X013221Y004100D01*
X013318Y004100D01*
X013367Y004052D01*
X013367Y004003D01*
X013318Y003955D01*
X013221Y003955D01*
X013173Y004003D01*
X013367Y004197D02*
X013318Y004245D01*
X013221Y004245D01*
X013468Y004197D02*
X013468Y004003D01*
X013516Y003955D01*
X013613Y003955D01*
X013661Y004003D01*
X013762Y003955D02*
X013762Y004245D01*
X013661Y004197D02*
X013613Y004245D01*
X013516Y004245D01*
X013468Y004197D01*
X013762Y004052D02*
X013956Y004245D01*
X013811Y004100D02*
X013956Y003955D01*
X013909Y003245D02*
X013861Y003197D01*
X013861Y003003D01*
X013909Y002955D01*
X014006Y002955D01*
X014054Y003003D01*
X014054Y003197D01*
X014006Y003245D01*
X013909Y003245D01*
X013759Y003197D02*
X013711Y003245D01*
X013614Y003245D01*
X013566Y003197D01*
X013566Y003148D01*
X013614Y003100D01*
X013711Y003100D01*
X013759Y003052D01*
X013759Y003003D01*
X013711Y002955D01*
X013614Y002955D01*
X013566Y003003D01*
X013466Y002955D02*
X013369Y002955D01*
X013418Y002955D02*
X013418Y003245D01*
X013466Y003245D02*
X013369Y003245D01*
X013268Y003245D02*
X013268Y002955D01*
X013075Y002955D02*
X013075Y003245D01*
X013172Y003148D01*
X013268Y003245D01*
X013268Y002245D02*
X013268Y001955D01*
X013369Y002003D02*
X013418Y001955D01*
X013515Y001955D01*
X013563Y002003D01*
X013563Y002197D01*
X013515Y002245D01*
X013418Y002245D01*
X013369Y002197D01*
X013369Y002003D01*
X013172Y002148D02*
X013268Y002245D01*
X013172Y002148D02*
X013075Y002245D01*
X013075Y001955D01*
X013664Y002003D02*
X013712Y001955D01*
X013809Y001955D01*
X013858Y002003D01*
X013858Y002052D01*
X013809Y002100D01*
X013712Y002100D01*
X013664Y002148D01*
X013664Y002197D01*
X013712Y002245D01*
X013809Y002245D01*
X013858Y002197D01*
X013959Y002245D02*
X014056Y002245D01*
X014007Y002245D02*
X014007Y001955D01*
X013959Y001955D02*
X014056Y001955D01*
D21*
X003800Y003578D03*
X003800Y004622D03*
D22*
X001590Y004410D02*
X001590Y003790D01*
X001580Y003790D01*
X001480Y003790D01*
X001310Y003960D01*
X001310Y004240D01*
X001480Y004410D01*
X001590Y004410D01*
X001590Y003790D01*
X001480Y003790D01*
X001310Y003960D01*
X001310Y004240D01*
X001480Y004410D01*
X001590Y004410D01*
X001590Y004341D02*
X001411Y004341D01*
X001334Y004264D02*
X001590Y004264D01*
X001590Y004187D02*
X001310Y004187D01*
X001310Y004109D02*
X001590Y004109D01*
X001590Y004032D02*
X001310Y004032D01*
X001315Y003955D02*
X001590Y003955D01*
X001590Y003878D02*
X001392Y003878D01*
X001469Y003801D02*
X001590Y003801D01*
D23*
X002765Y003510D03*
X002765Y004690D03*
D24*
X002765Y004100D03*
D25*
X009600Y006100D02*
X009600Y002100D01*
X011600Y002100D01*
X011600Y006100D01*
X010000Y006100D01*
X010200Y006100D01*
X010000Y006100D02*
X009600Y006100D01*
M02*
