G75*
%MOIN*%
%OFA0B0*%
%FSLAX24Y24*%
%IPPOS*%
%LPD*%
%AMOC8*
5,1,8,0,0,1.08239X$1,22.5*
%
%ADD10R,0.0710X0.0789*%
%ADD11C,0.0800*%
%ADD12R,0.0592X0.0671*%
%ADD13R,0.0710X0.0790*%
%ADD14R,0.1080X0.0580*%
%ADD15C,0.0290*%
%ADD16R,0.0789X0.0710*%
%ADD17C,0.0946*%
%ADD18R,0.0620X0.0413*%
%ADD19OC8,0.0760*%
D10*
X009549Y001600D03*
X010651Y001600D03*
D11*
X005660Y002100D02*
X004940Y002100D01*
X004940Y003100D02*
X005660Y003100D01*
X005660Y004100D02*
X004940Y004100D01*
X004940Y005100D02*
X005660Y005100D01*
D12*
X006765Y004100D03*
X007435Y004100D03*
X007435Y003100D03*
X006765Y003100D03*
D13*
X006740Y005100D03*
X007860Y005100D03*
D14*
X013600Y006600D03*
D15*
X013995Y005455D02*
X013205Y005455D01*
X013205Y005745D01*
X013995Y005745D01*
X013995Y005455D01*
X013995Y005744D02*
X013205Y005744D01*
X013205Y004455D02*
X013995Y004455D01*
X013205Y004455D02*
X013205Y004745D01*
X013995Y004745D01*
X013995Y004455D01*
X013995Y004744D02*
X013205Y004744D01*
X013205Y003455D02*
X013995Y003455D01*
X013205Y003455D02*
X013205Y003745D01*
X013995Y003745D01*
X013995Y003455D01*
X013995Y003744D02*
X013205Y003744D01*
X013205Y002455D02*
X013995Y002455D01*
X013205Y002455D02*
X013205Y002745D01*
X013995Y002745D01*
X013995Y002455D01*
X013995Y002744D02*
X013205Y002744D01*
X013205Y001455D02*
X013995Y001455D01*
X013205Y001455D02*
X013205Y001745D01*
X013995Y001745D01*
X013995Y001455D01*
X013995Y001744D02*
X013205Y001744D01*
D16*
X003800Y003549D03*
X003800Y004651D03*
D17*
X002025Y004100D02*
X001435Y004100D01*
D18*
X002882Y004100D03*
X002882Y003509D03*
X002882Y004691D03*
D19*
X009100Y004600D03*
X009100Y003600D03*
X009100Y002600D03*
X012100Y002600D03*
X012100Y003600D03*
X012100Y004600D03*
X012100Y005600D03*
X009100Y005600D03*
M02*
